<?xml version="1.0" standalone="no"?>
<!DOCTYPE svg PUBLIC "-//W3C//DTD SVG 20010904//EN"
 "http://www.w3.org/TR/2001/REC-SVG-20010904/DTD/svg10.dtd">
<svg version="1.0" xmlns="http://www.w3.org/2000/svg"
 width="512.000000pt" height="512.000000pt" viewBox="0 0 512.000000 512.000000"
 preserveAspectRatio="xMidYMid meet">

<g transform="translate(0.000000,512.000000) scale(0.100000,-0.100000)"
fill="#000000" stroke="none">
<path d="M490 5113 c-32 -12 -54 -42 -110 -153 l-58 -116 -133 -18 c-120 -17
-137 -22 -161 -47 -49 -48 -40 -69 76 -188 l104 -106 -23 -135 c-24 -143 -22
-167 17 -194 37 -26 64 -19 190 46 l120 63 121 -63 c67 -34 135 -62 150 -62
36 0 77 41 77 76 0 15 -9 81 -20 147 l-21 120 101 102 c89 91 100 106 100 137
0 67 -21 79 -176 103 l-139 21 -60 117 c-33 64 -67 123 -75 131 -18 16 -59 26
-80 19z m54 -336 c32 -72 62 -94 142 -102 l65 -7 -50 -53 c-59 -63 -66 -83
-52 -161 6 -32 11 -61 11 -65 0 -4 -28 8 -62 27 -35 18 -71 34 -81 34 -10 0
-44 -13 -77 -30 -33 -16 -62 -30 -66 -30 -3 0 -3 26 2 58 12 92 10 100 -47
158 -29 29 -51 55 -48 57 2 2 35 9 72 15 38 6 75 16 84 23 8 7 28 39 44 71 16
32 32 58 34 58 3 0 16 -24 29 -53z"/>
<path d="M1798 5100 c-52 -28 -81 -73 -86 -134 -10 -121 84 -204 203 -182 46
9 110 67 125 112 47 142 -110 273 -242 204z"/>
<path d="M4219 5107 c-28 -22 -39 -55 -39 -121 0 -54 4 -70 24 -92 31 -37 84
-38 121 -4 23 21 25 31 25 102 0 70 -3 82 -25 103 -27 27 -79 33 -106 12z"/>
<path d="M4000 4864 c-67 -25 -92 -71 -66 -121 19 -39 54 -53 127 -53 54 0 64
3 90 29 36 36 38 79 6 116 -18 22 -33 27 -82 31 -33 2 -67 1 -75 -2z"/>
<path d="M4403 4855 c-57 -24 -70 -84 -29 -132 23 -26 29 -28 104 -28 64 0 84
4 100 19 48 42 31 124 -29 145 -43 15 -107 13 -146 -4z"/>
<path d="M4205 4665 c-22 -21 -25 -33 -25 -100 0 -67 3 -79 25 -100 16 -17 35
-25 60 -25 25 0 44 8 60 25 22 21 25 33 25 98 0 60 -4 79 -21 101 -28 36 -89
37 -124 1z"/>
<path d="M1942 4594 c-39 -27 -43 -54 -22 -161 62 -326 51 -716 -30 -1034 -32
-125 -74 -244 -160 -451 -44 -106 -80 -204 -80 -219 0 -14 9 -38 21 -53 25
-32 85 -36 117 -8 21 17 161 347 214 502 40 118 74 254 100 406 20 113 23 163
23 409 0 249 -3 294 -24 410 -12 72 -29 144 -36 162 -22 52 -78 69 -123 37z"/>
<path d="M2562 4421 c-163 -56 -223 -255 -119 -393 69 -93 204 -125 312 -74
121 56 177 202 125 324 -29 68 -93 126 -161 146 -67 20 -91 20 -157 -3z m135
-176 c60 -42 24 -144 -52 -144 -53 0 -91 48 -80 100 8 36 39 59 80 59 17 0 40
-7 52 -15z"/>
<path d="M3182 4157 c-21 -23 -22 -30 -22 -273 l0 -251 26 -24 26 -24 243 0
243 0 26 24 26 24 0 252 c0 250 0 252 -23 273 -23 21 -30 22 -273 22 -249 0
-251 0 -272 -23z m398 -272 l0 -125 -125 0 -125 0 0 125 0 125 125 0 125 0 0
-125z"/>
<path d="M4572 3915 c-39 -17 -52 -48 -52 -126 0 -54 3 -64 29 -90 38 -37 82
-39 116 -4 22 21 25 33 25 103 0 69 -3 81 -22 99 -32 29 -58 34 -96 18z"/>
<path d="M1127 3899 c-57 -13 -128 -53 -169 -95 -81 -81 -110 -193 -89 -355
l12 -101 -47 -196 c-25 -109 -48 -199 -50 -201 -1 -1 -13 4 -26 13 -34 24 -75
20 -105 -10 -24 -24 -25 -30 -19 -92 8 -89 55 -279 106 -427 52 -153 188 -429
277 -565 243 -369 590 -685 960 -873 57 -29 103 -55 103 -58 0 -3 -215 -87
-477 -187 -263 -99 -485 -183 -494 -187 -24 -9 -195 166 -267 273 -70 105
-110 186 -146 292 -39 120 -53 208 -77 495 -13 170 -27 280 -35 297 -25 48
-103 52 -137 6 -19 -26 -20 -33 -8 -190 l12 -163 -89 -360 -88 -360 -33 -5
c-21 -3 -41 -15 -52 -30 -16 -22 -189 -700 -189 -741 0 -26 38 -67 69 -74 20
-4 58 6 132 34 110 42 3094 1170 3166 1197 60 22 128 86 160 152 53 109 42
310 -27 496 -18 47 -28 60 -56 72 -37 15 -58 11 -91 -19 -30 -27 -29 -63 4
-162 22 -66 27 -99 27 -190 1 -98 -1 -113 -21 -141 -34 -48 -82 -66 -171 -65
-89 1 -160 17 -288 67 -103 39 -330 166 -474 264 -670 458 -1317 1274 -1392
1755 -28 183 37 269 206 271 73 0 81 2 102 28 28 32 30 56 9 96 -24 46 -126
63 -228 39z"/>
<path d="M4249 3771 c-45 -46 -39 -74 29 -143 69 -68 97 -74 143 -29 47 47 41
84 -26 148 -66 64 -100 70 -146 24z"/>
<path d="M4822 3746 c-48 -47 -56 -59 -56 -91 0 -29 7 -43 28 -61 45 -40 81
-32 143 29 45 46 53 60 53 91 0 48 -36 86 -80 86 -25 0 -44 -12 -88 -54z"/>
<path d="M2934 3478 c-44 -35 -814 -725 -851 -764 -25 -25 -33 -43 -33 -69 0
-58 63 -101 114 -77 23 10 824 724 879 783 37 40 36 82 -2 120 -35 35 -68 37
-107 7z"/>
<path d="M4330 3417 c-1465 -697 -1662 -792 -1672 -811 -30 -56 8 -126 70
-126 22 0 106 35 250 103 120 57 523 249 897 427 374 178 691 333 705 346 35
34 33 89 -4 120 -15 13 -37 24 -49 24 -13 0 -101 -37 -197 -83z"/>
<path d="M4894 3476 c-39 -33 -39 -89 0 -122 23 -21 38 -24 99 -24 75 1 95 9
115 47 19 35 14 63 -17 94 -27 27 -35 29 -100 29 -59 0 -74 -4 -97 -24z"/>
<path d="M4809 3245 c-29 -16 -52 -65 -42 -93 3 -9 29 -41 57 -69 59 -62 100
-70 141 -28 38 37 34 85 -12 136 -37 40 -81 69 -105 69 -7 -1 -25 -7 -39 -15z"/>
<path d="M4549 3131 c-26 -27 -29 -35 -29 -99 0 -54 4 -75 20 -95 36 -45 102
-44 137 2 7 9 12 47 12 91 0 78 -8 98 -46 118 -35 19 -63 14 -94 -17z"/>
<path d="M3085 2299 c-55 -4 -203 -25 -330 -45 -213 -35 -232 -40 -257 -65
-16 -15 -28 -39 -28 -52 0 -38 46 -87 81 -87 16 0 123 16 239 35 512 84 910
59 1353 -85 98 -32 130 -38 150 -31 32 13 57 48 57 83 0 45 -37 74 -140 108
-368 122 -753 169 -1125 139z"/>
<path d="M4613 2036 c-225 -74 -231 -396 -9 -481 55 -21 154 -17 203 8 70 37
128 120 139 200 14 98 -49 212 -140 259 -50 26 -138 32 -193 14z"/>
<path d="M3865 1425 c-47 -47 -23 -126 43 -141 238 -51 421 -144 583 -293 l74
-69 -45 -12 c-123 -33 -260 -142 -310 -245 -35 -72 -40 -189 -10 -267 28 -75
96 -150 168 -185 50 -25 68 -28 152 -28 89 0 99 2 158 34 102 56 160 142 186
279 l13 67 29 -60 c27 -55 29 -69 29 -170 0 -99 -3 -116 -27 -169 -35 -73 -36
-109 -3 -141 48 -49 109 -27 150 56 88 172 74 410 -33 575 -36 55 -163 184
-181 184 -4 0 -29 32 -55 71 -164 245 -458 449 -750 519 -109 27 -141 26 -171
-5z m788 -695 c47 -37 61 -149 32 -247 -45 -153 -245 -179 -316 -42 -44 87 -6
189 95 257 81 54 147 65 189 32z"/>
</g>
</svg>
