<?xml version="1.0" standalone="no"?>
<!DOCTYPE svg PUBLIC "-//W3C//DTD SVG 20010904//EN"
 "http://www.w3.org/TR/2001/REC-SVG-20010904/DTD/svg10.dtd">
<svg version="1.0" xmlns="http://www.w3.org/2000/svg"
 width="513.000000pt" height="486.000000pt" viewBox="0 0 513.000000 486.000000"
 preserveAspectRatio="xMidYMid meet">

<g transform="translate(0.000000,486.000000) scale(0.100000,-0.100000)"
fill="#000000" stroke="none">
<path d="M3564 4838 c-10 -13 -56 -68 -101 -124 -121 -150 -222 -235 -333
-281 -42 -17 -75 -23 -139 -23 -86 0 -114 6 -336 76 -60 19 -128 39 -150 45
-22 7 -53 15 -70 20 -16 5 -52 15 -80 23 -141 43 -648 158 -865 197 -503 90
-821 -35 -1318 -516 -63 -60 -120 -122 -128 -137 -18 -35 -18 -88 1 -115 40
-57 492 -203 724 -234 139 -19 357 -7 465 25 82 25 290 120 326 150 26 22 195
115 272 150 224 103 399 133 683 120 334 -15 425 -6 548 57 33 16 61 28 63 26
2 -2 -22 -37 -54 -79 -31 -41 -86 -113 -122 -159 -35 -46 -114 -134 -175 -195
-194 -193 -264 -208 -600 -128 -100 25 -382 25 -483 1 -184 -44 -333 -112
-469 -214 -125 -94 -260 -253 -214 -253 10 0 153 -95 241 -161 148 -109 283
-139 475 -105 240 44 523 203 769 435 124 117 -53 -102 -217 -267 -152 -154
-248 -233 -494 -408 -360 -256 -502 -384 -617 -556 -217 -328 -310 -773 -265
-1268 17 -194 84 -603 118 -725 5 -16 14 -56 21 -88 8 -31 18 -61 25 -67 18
-15 45 5 434 329 103 85 220 184 261 220 41 36 93 82 115 101 179 157 443 441
502 541 10 16 21 29 24 29 22 0 90 -258 104 -392 7 -66 14 -69 78 -37 129 66
307 226 410 368 73 101 166 280 200 388 52 160 70 276 71 453 2 285 -48 447
-241 782 -168 293 -213 417 -213 596 0 189 44 297 212 524 62 84 124 169 138
188 52 76 221 275 424 500 17 19 62 73 100 120 57 70 65 86 50 89 -12 2 -28
-9 -44 -30 -29 -38 -175 -208 -343 -399 -65 -74 -167 -200 -225 -279 -372
-500 -521 -704 -606 -828 -43 -62 -79 -113 -81 -113 -3 0 25 51 61 113 37 61
78 132 92 157 98 171 225 348 528 742 49 63 100 130 114 148 14 18 105 132
202 254 98 122 178 224 178 229 0 15 -27 6 -46 -15z m-2110 -94 c162 -28 297
-95 463 -229 65 -53 142 -107 171 -121 28 -15 52 -28 52 -31 0 -3 -17 -2 -37
1 -21 4 -128 11 -238 16 -235 10 -276 21 -412 108 -126 80 -199 118 -273 141
-83 26 -227 51 -296 51 -30 0 -54 4 -54 8 0 17 176 63 290 76 59 7 240 -4 334
-20z m300 -59 c204 -41 426 -98 471 -122 50 -25 120 -76 185 -133 60 -54 93
-78 145 -104 48 -25 49 -25 19 -26 -48 0 -291 38 -359 57 -85 23 -181 74 -245
129 -90 77 -152 121 -246 175 -49 28 -80 48 -69 45 11 -3 55 -12 99 -21z
m-674 -40 c113 -25 209 -66 315 -135 95 -61 192 -110 250 -125 24 -6 6 -11
-85 -21 -63 -8 -171 -24 -240 -36 -85 -16 -162 -23 -240 -22 -101 0 -127 4
-213 32 -54 17 -128 37 -165 43 -83 15 -226 6 -315 -19 -80 -23 -78 -19 32 72
103 85 201 153 285 199 l71 38 115 -5 c63 -3 149 -12 190 -21z m1360 -129 c85
-24 184 -53 220 -65 258 -81 312 -90 406 -71 32 7 85 26 118 42 32 16 60 27
62 25 3 -2 -15 -20 -38 -39 -103 -84 -202 -111 -408 -112 -128 -1 -152 2 -201
22 -62 25 -118 62 -204 137 -31 28 -75 62 -97 78 -23 15 -35 27 -27 27 8 0 84
-20 169 -44z m-1706 -151 c40 -8 106 -27 147 -40 40 -14 98 -28 127 -32 32 -3
49 -9 41 -13 -8 -4 -86 -24 -174 -44 -197 -44 -532 -125 -683 -166 -134 -36
-132 -36 -132 -9 0 35 20 61 122 159 103 98 132 115 243 139 33 7 65 15 70 16
29 9 175 3 239 -10z m1196 -27 c-113 -50 -137 -68 -279 -211 -198 -201 -296
-267 -449 -307 -94 -24 -357 -40 -312 -19 14 7 63 30 110 52 132 62 224 129
365 266 144 139 186 171 272 207 51 21 73 23 188 23 103 0 125 -3 105 -11z
m-310 -2 c0 -3 -21 -15 -47 -28 -28 -13 -106 -79 -190 -160 -151 -145 -240
-211 -372 -278 -150 -76 -185 -82 -323 -55 -86 16 -229 52 -236 59 -2 3 9 8
24 11 167 37 309 114 459 250 22 20 61 50 87 67 27 17 46 33 44 35 -8 9 -49
-20 -143 -98 -128 -109 -179 -144 -256 -179 -94 -43 -213 -73 -261 -67 -63 7
-316 102 -316 119 0 4 2 8 5 8 2 0 118 29 257 64 453 114 703 170 717 162 4
-3 30 3 57 13 42 16 162 39 364 70 62 10 130 13 130 7z m675 -26 c317 -49 529
-60 675 -34 21 3 21 2 -6 -10 -57 -27 -194 -39 -304 -27 -138 15 -356 13 -466
-3 -97 -15 -218 -46 -299 -78 -64 -24 -245 -116 -266 -134 -8 -8 -18 -14 -21
-14 -3 0 -32 -16 -64 -35 -79 -48 -87 -44 -23 9 30 25 95 89 145 143 145 156
243 212 374 213 36 0 151 -13 255 -30z m424 -556 c-16 -20 -156 -114 -258
-174 -122 -72 -232 -74 -398 -5 -141 58 -218 84 -265 90 -30 3 -22 -1 30 -15
41 -11 115 -37 165 -59 148 -63 187 -73 269 -75 43 0 78 -2 78 -4 0 -2 -53
-28 -117 -59 -113 -54 -121 -56 -198 -55 -87 0 -172 23 -300 82 -37 17 -72 29
-77 28 -20 -7 201 -93 292 -113 l95 -22 -60 -17 c-198 -58 -267 -56 -411 12
-127 60 -174 72 -269 70 l-70 -1 90 -7 c99 -8 155 -25 256 -76 36 -19 71 -34
77 -34 6 0 14 -4 17 -10 4 -7 -102 -10 -311 -10 l-317 0 49 54 c37 40 59 55
89 61 36 8 37 9 15 15 -24 6 -22 8 30 49 30 24 66 48 80 53 39 15 198 11 264
-7 32 -8 61 -13 63 -11 16 15 -187 50 -250 43 -61 -8 -55 0 41 48 110 55 147
65 246 67 84 1 86 2 31 7 -74 7 -58 16 69 36 146 24 285 16 466 -25 134 -31
225 -40 285 -28 73 13 130 39 176 78 38 33 48 38 28 14z m-87 -121 c-52 -73
-345 -337 -415 -375 -21 -11 -20 -9 4 23 14 19 40 59 58 89 50 83 95 125 211
195 58 35 114 71 125 79 31 24 38 19 17 -11z m162 -20 c-21 -69 -28 -198 -16
-278 23 -141 67 -248 215 -510 134 -239 179 -341 212 -483 18 -75 19 -93 4
-72 -8 11 -9 8 -4 -15 33 -145 36 -181 25 -290 -12 -124 -29 -226 -40 -238 -4
-5 -11 12 -15 38 -3 26 -9 44 -12 41 -3 -2 0 -34 6 -70 10 -58 9 -71 -10 -123
-38 -106 -100 -235 -131 -275 l-19 -23 8 40 c18 96 1 297 -29 345 -7 11 -8 8
-3 -10 3 -14 13 -65 21 -115 18 -106 7 -242 -26 -310 -17 -34 -159 -199 -159
-185 -1 3 6 30 14 60 23 86 19 226 -11 375 -22 106 -26 150 -23 240 2 61 3
159 3 219 -1 95 1 107 12 91 8 -10 14 -23 14 -27 0 -5 28 -69 63 -141 35 -73
68 -143 74 -157 7 -14 12 -19 12 -11 1 8 -30 79 -69 159 -89 183 -105 237
-130 431 -11 87 -25 184 -31 215 -6 32 -8 60 -6 62 3 3 18 -19 34 -48 17 -29
61 -93 98 -143 119 -157 203 -311 241 -441 9 -33 19 -54 21 -48 5 15 -43 146
-84 228 -39 77 -111 189 -203 316 -75 102 -106 161 -125 238 -18 69 -55 312
-55 356 0 29 3 26 34 -32 38 -70 82 -128 167 -217 112 -118 230 -277 253 -339
3 -10 9 -16 12 -13 18 18 -106 192 -247 348 -193 214 -225 278 -223 454 2 106
22 233 45 278 13 25 88 127 93 127 2 0 -2 -21 -10 -47z m-493 -190 c-21 -32
-50 -76 -63 -98 -64 -102 -201 -193 -384 -254 -117 -39 -144 -39 -74 0 54 31
285 257 274 269 -3 3 -17 -8 -31 -25 -54 -65 -180 -189 -220 -216 -83 -57
-130 -73 -225 -72 -47 1 -103 6 -125 13 -100 31 -117 46 -60 53 21 2 13 4 -23
6 -51 1 -61 6 -149 71 -52 38 -103 76 -115 84 -21 15 -21 15 4 17 14 1 158 2
322 3 236 1 294 -2 286 -11 -12 -15 3 -18 18 -3 14 14 313 92 325 84 6 -3 18
1 27 9 12 11 226 119 250 126 1 1 -15 -25 -37 -56z m349 -19 c-5 -27 -13 -116
-16 -199 -7 -164 -25 -234 -84 -325 -16 -25 -39 -68 -51 -95 l-22 -50 -10 30
c-14 47 -20 313 -9 376 9 46 27 80 102 188 51 73 94 130 96 128 2 -2 0 -26 -6
-53z m-221 -136 c-6 -13 -77 -135 -157 -271 -127 -217 -153 -256 -211 -308
-65 -60 -201 -135 -396 -219 -155 -66 -298 -158 -435 -279 -80 -71 -79 -63 11
60 54 74 204 222 294 290 33 25 141 104 240 174 290 207 397 296 555 463 58
61 106 111 108 111 1 1 -3 -9 -9 -21z m-13 -281 c2 -129 18 -252 60 -451 14
-67 33 -161 44 -211 35 -170 53 -343 46 -452 -8 -131 -24 -178 -26 -78 -4 163
-15 159 -15 -5 0 -162 -2 -179 -24 -235 -31 -76 -80 -175 -87 -175 -9 0 -44
84 -44 108 0 12 -4 22 -9 22 -11 0 -111 219 -154 340 -68 188 -81 259 -82 435
0 112 4 176 15 215 l15 55 6 -55 c5 -49 6 -45 7 33 2 77 7 101 42 191 22 56
47 111 55 122 13 17 14 13 15 -46 1 -36 4 -83 8 -105 5 -26 8 7 7 90 l0 130
58 98 c33 53 60 97 60 97 1 0 3 -55 3 -123z m243 -57 c7 -58 16 -130 21 -160
4 -30 6 -82 4 -115 -2 -41 -1 -50 4 -30 8 29 8 29 20 -20 21 -89 52 -322 52
-387 -1 -111 -26 -184 -107 -312 -24 -37 -42 -70 -40 -72 13 -13 132 207 143
263 l8 38 7 -30 c9 -42 9 -223 0 -322 -10 -101 -41 -170 -142 -308 -69 -95
-129 -205 -129 -235 0 -8 11 10 24 41 28 69 48 102 124 203 33 43 69 96 79
117 20 43 36 52 29 17 -3 -13 -13 -63 -21 -113 -20 -111 -58 -255 -94 -360
-44 -127 -93 -237 -101 -228 -8 10 -31 142 -40 238 -4 39 -7 62 -8 53 -4 -35
-17 -17 -40 52 l-23 70 34 62 c49 90 93 210 112 308 9 47 20 92 24 100 9 20
-5 297 -19 379 -13 77 -5 122 51 257 20 51 40 108 43 126 l5 33 -12 -35 c-31
-87 -101 -259 -105 -256 -4 5 -45 190 -68 309 -17 86 -11 126 30 200 13 23 37
67 54 97 17 30 36 74 43 98 7 23 15 39 19 35 4 -4 12 -55 19 -113z m-467 -161
c-54 -127 -86 -245 -102 -377 -23 -187 24 -422 135 -683 20 -45 39 -103 42
-127 4 -27 9 -39 14 -31 7 12 49 -68 96 -183 l15 -38 -48 -67 c-54 -78 -104
-137 -104 -126 0 5 9 40 21 78 14 49 21 107 24 195 l3 125 -7 -115 c-9 -122
-11 -135 -44 -245 l-21 -70 -8 74 c-11 104 -21 104 -12 0 4 -53 3 -93 -4 -104
-21 -39 -176 -185 -183 -173 -5 8 -10 2 -14 -15 -7 -27 -59 -77 -275 -265 -19
-17 -35 -30 -37 -29 -1 1 9 40 23 86 13 46 24 91 23 100 0 9 -11 -20 -24 -64
-42 -148 -32 -135 -243 -312 -28 -24 -53 -43 -56 -43 -3 0 1 15 8 32 35 84 49
187 42 316 -4 70 -9 190 -12 268 l-6 141 70 209 c70 210 119 342 132 357 4 4
10 -47 13 -115 3 -68 13 -145 21 -173 19 -67 19 -45 0 56 -10 54 -14 122 -12
194 l3 110 65 145 c113 255 172 368 180 345 5 -14 8 -6 13 29 4 26 23 78 43
114 101 188 239 431 241 428 2 -2 -5 -23 -15 -47z m-120 -121 c-69 -121 -132
-239 -176 -328 -70 -140 -148 -213 -351 -330 -49 -28 -116 -69 -147 -90 -32
-21 -74 -44 -94 -50 -21 -7 -32 -15 -25 -19 7 -5 -10 -27 -45 -61 -110 -106
-181 -201 -256 -345 -54 -104 -56 -100 -32 85 l17 125 49 49 c34 32 84 64 152
97 55 27 98 49 94 49 -26 0 -129 -49 -198 -95 l-82 -55 7 32 c12 52 73 223
102 285 56 117 252 290 457 403 33 18 119 59 193 90 154 67 238 113 308 169
28 22 51 40 53 40 2 1 -10 -23 -26 -51z m-323 -629 c-86 -191 -84 -185 -124
-287 -63 -157 -119 -228 -280 -352 -196 -152 -307 -297 -368 -479 -17 -50 -27
-67 -31 -55 -13 43 -26 370 -17 419 28 146 190 395 339 521 74 63 162 123 315
214 59 35 133 85 165 111 31 26 58 46 60 44 1 -1 -25 -62 -59 -136z m1071
-532 c35 -188 20 -380 -36 -446 -41 -49 -199 -160 -210 -148 -2 2 11 40 29 83
73 170 129 361 163 553 21 119 24 117 54 -42z m-1346 -167 c-41 -124 -86 -244
-100 -268 -14 -24 -63 -83 -108 -130 -142 -152 -192 -224 -237 -347 -12 -33
-25 -64 -29 -68 -4 -4 -16 54 -27 130 -20 135 -20 140 -3 209 23 88 88 220
145 294 58 73 158 170 280 267 55 44 111 94 124 112 13 17 25 30 27 28 1 -1
-31 -104 -72 -227z m-31 -640 c1 -156 0 -170 -26 -248 -16 -46 -36 -91 -46
-100 -70 -68 -271 -230 -271 -219 0 2 26 73 59 158 55 146 147 421 222 664
l34 110 13 -100 c8 -55 14 -174 15 -265z m-115 178 c-87 -289 -227 -690 -248
-712 -10 -10 -14 2 -45 155 -31 156 -31 163 0 256 39 114 95 201 204 316 54
57 104 113 110 125 31 59 24 7 -21 -140z"/>
<path d="M3141 2440 c-1 -3 13 -39 30 -80 16 -41 27 -61 24 -45 -6 28 -52 136
-54 125z"/>
<path d="M3142 1885 c0 -11 4 -31 8 -45 6 -20 8 -21 8 -5 0 11 -4 31 -8 45 -6
20 -8 21 -8 5z"/>
<path d="M1654 3223 c-102 -69 -123 -82 -174 -101 -30 -12 -46 -21 -35 -21 36
-1 194 89 254 145 14 13 -12 0 -45 -23z"/>
<path d="M2305 2620 c5 -30 32 -102 148 -395 9 -22 16 -34 16 -26 1 8 -22 71
-50 140 -29 69 -67 169 -86 221 -19 52 -31 79 -28 60z"/>
<path d="M2171 2414 c1 -16 5 -40 9 -54 6 -17 7 -9 3 25 -6 56 -14 74 -12 29z"/>
<path d="M2191 2320 c0 -8 4 -24 9 -35 l9 -20 0 20 c0 11 -4 27 -9 35 -9 13
-10 13 -9 0z"/>
<path d="M2210 2256 c0 -5 23 -63 51 -130 29 -66 64 -157 80 -201 29 -82 37
-92 18 -20 -10 35 -136 343 -145 354 -2 2 -4 1 -4 -3z"/>
<path d="M2474 2164 c4 -12 15 -59 25 -105 11 -46 20 -73 20 -59 1 29 -34 169
-44 178 -4 4 -5 -2 -1 -14z"/>
<path d="M2375 1685 c0 -87 3 -145 6 -129 9 40 9 200 1 248 -4 22 -7 -30 -7
-119z"/>
<path d="M1903 2155 c0 -33 2 -45 4 -27 2 18 2 45 0 60 -2 15 -4 0 -4 -33z"/>
<path d="M1912 2045 c0 -22 4 -53 8 -70 7 -27 8 -28 8 -5 0 14 -3 45 -7 70
l-8 45 -1 -40z"/>
<path d="M1931 1927 c-2 -29 56 -231 58 -204 1 7 -46 191 -54 212 -2 6 -4 2
-4 -8z"/>
<path d="M1991 1705 c-2 -22 36 -139 41 -125 9 27 126 -173 129 -220 0 -9 2
-10 5 -3 8 19 -35 111 -93 200 -30 45 -60 99 -68 120 -7 21 -14 34 -14 28z"/>
<path d="M2032 1550 c-1 -8 5 -44 13 -80 7 -36 13 -51 13 -35 0 31 -25 142
-26 115z"/>
<path d="M2061 1275 c-1 -117 -19 -249 -46 -337 -4 -12 -4 -20 0 -16 3 3 15
39 26 80 20 72 38 337 26 383 -2 11 -5 -38 -6 -110z"/>
<path d="M1692 1320 c0 -14 4 -36 8 -50 6 -20 8 -21 8 -5 0 11 -4 34 -8 50 -7
27 -8 27 -8 5z"/>
<path d="M2172 1330 c0 -8 4 -26 8 -40 6 -20 8 -21 8 -5 0 11 -3 29 -8 40 -5
12 -8 14 -8 5z"/>
<path d="M1712 1220 c0 -14 4 -38 8 -55 7 -27 8 -27 8 -5 0 14 -4 39 -8 55 -7
27 -8 27 -8 5z"/>
<path d="M1734 965 c0 -101 3 -154 8 -130 9 50 9 184 -1 250 -4 31 -7 -15 -7
-120z"/>
<path d="M3795 4833 c23 -145 28 -195 27 -308 -1 -155 -12 -212 -87 -445 -115
-358 -138 -494 -138 -810 1 -292 31 -538 128 -1030 101 -517 189 -806 322
-1060 80 -153 146 -250 235 -345 79 -84 133 -115 202 -115 113 0 157 62 268
374 155 438 231 723 285 1061 22 142 25 585 4 720 -40 267 -142 539 -266 715
-52 73 -197 241 -243 281 -363 313 -513 532 -609 886 -27 99 -29 103 -56 103
-23 0 -27 -3 -23 -22 8 -38 24 -151 56 -393 17 -126 38 -266 46 -310 11 -55
15 -110 12 -175 l-5 -95 11 70 11 70 14 -35 c7 -19 36 -91 64 -160 28 -69 56
-152 63 -185 10 -51 12 -55 14 -25 2 33 5 29 45 -56 64 -133 111 -276 126
-383 12 -83 11 -100 -4 -160 -23 -90 -78 -197 -191 -374 -52 -82 -115 -190
-139 -240 -46 -95 -91 -216 -83 -224 2 -2 14 26 26 64 34 101 110 248 215 412
101 159 142 236 171 321 l19 55 3 -50 c2 -27 2 -153 -1 -280 -4 -248 -5 -252
-67 -376 -17 -32 -45 -83 -64 -112 -73 -114 -167 -348 -165 -410 0 -12 14 25
30 83 27 95 120 302 154 340 7 8 34 57 59 109 25 52 48 97 51 100 4 3 6 -134
6 -304 -1 -411 18 -759 54 -1000 21 -141 39 -213 76 -293 16 -36 29 -66 29
-68 0 -2 -8 -4 -18 -4 -27 0 -101 52 -153 106 -78 83 -97 112 -104 156 -6 34
-9 39 -15 23 -6 -17 -11 -14 -39 30 -18 28 -59 104 -92 170 l-59 119 -2 136
-2 135 -5 -110 -6 -110 -18 39 c-46 102 -127 397 -127 463 0 35 -3 44 -10 33
-5 -8 -10 -10 -10 -3 0 6 -16 89 -36 185 -39 186 -38 162 -9 353 4 24 2 21 -9
-10 -8 -22 -15 -56 -15 -74 -2 -72 -20 -11 -50 170 -54 328 -61 397 -50 506
14 129 55 249 137 403 107 199 162 330 162 379 0 9 -14 -24 -31 -73 -16 -49
-70 -166 -119 -260 -111 -214 -131 -266 -162 -431 -7 -42 -13 237 -7 340 14
218 44 357 134 635 68 210 85 288 92 425 5 99 -15 312 -34 362 -10 26 -33 14
-28 -14z m214 -401 c93 -185 172 -280 449 -541 191 -180 307 -325 381 -481
l22 -45 -32 40 c-110 137 -245 242 -469 365 -149 82 -192 111 -266 182 -105
101 -121 149 -163 478 -11 85 -22 182 -25 215 l-6 60 39 -105 c21 -58 52 -133
70 -168z m28 -437 c35 -54 143 -137 269 -206 292 -162 421 -263 528 -414 80
-112 108 -182 151 -384 24 -108 25 -146 4 -109 -27 48 -97 123 -156 168 -64
49 -97 66 -295 158 -72 33 -104 57 -179 129 -90 86 -92 90 -176 263 -100 205
-138 294 -163 373 -21 65 -15 72 17 22z m453 -790 c58 -48 129 -111 158 -139
123 -117 240 -297 307 -474 16 -39 30 -70 32 -68 6 5 -42 124 -83 208 -71 145
-186 293 -309 397 -41 35 -75 66 -75 67 0 13 219 -91 274 -129 56 -38 137
-121 177 -179 32 -47 41 -71 49 -130 11 -87 13 -331 3 -325 -5 3 -8 -45 -9
-106 0 -62 -6 -143 -13 -182 -47 -266 -52 -284 -63 -220 -4 23 -5 12 -2 -27 6
-71 -19 -184 -88 -401 l-32 -102 -7 64 c-13 101 -18 94 -12 -14 6 -108 9 -95
-100 -400 l-22 -60 -6 40 c-5 35 -6 32 -8 -23 -1 -47 -8 -78 -28 -120 -32 -64
-87 -125 -110 -120 -30 6 -80 128 -106 258 -29 141 -75 676 -66 755 4 28 6 25
27 -29 12 -32 60 -122 106 -200 70 -119 105 -192 139 -286 5 -13 6 -13 6 1 1
19 -40 123 -70 175 -13 21 -50 86 -84 144 -34 58 -69 125 -79 150 -46 116 -48
128 -53 403 -3 151 -1 267 3 267 5 0 17 -21 26 -48 19 -53 76 -146 192 -318
44 -64 99 -153 123 -198 23 -44 43 -77 43 -73 1 24 -103 202 -191 328 -177
254 -200 321 -196 582 1 97 5 177 8 177 4 0 14 -21 24 -47 28 -77 137 -231
235 -333 177 -186 268 -321 305 -457 7 -26 14 -40 14 -30 1 25 -44 152 -71
195 -43 73 -129 179 -238 297 -206 223 -280 368 -280 549 0 89 -28 263 -55
336 l-16 45 58 -56 c32 -31 105 -96 163 -144z"/>
<path d="M4991 2500 c0 -8 4 -24 9 -35 5 -13 9 -14 9 -5 0 8 -4 24 -9 35 -5
13 -9 14 -9 5z"/>
<path d="M4731 1745 c-1 -5 8 -32 19 -60 12 -27 18 -37 15 -21 -7 34 -33 96
-34 81z"/>
<path d="M4772 1615 c0 -11 4 -31 8 -45 6 -20 8 -21 8 -5 0 11 -4 31 -8 45 -6
20 -8 21 -8 5z"/>
<path d="M4631 1235 c1 -5 7 -41 15 -80 l14 -70 -5 57 c-4 46 -24 126 -24 93z"/>
<path d="M4133 3490 c0 -41 2 -58 4 -37 2 20 2 54 0 75 -2 20 -4 3 -4 -38z"/>
<path d="M4121 3386 c-2 -48 -32 -156 -63 -231 -42 -102 -42 -101 -31 -90 33
33 108 271 100 320 l-4 30 -2 -29z"/>
<path d="M3922 2871 c-83 -167 -143 -315 -141 -351 0 -8 14 28 32 80 17 52 70
173 119 269 48 96 86 177 83 179 -2 2 -44 -77 -93 -177z"/>
<path d="M3865 2120 c-4 -17 -5 -34 -2 -36 3 -3 8 9 12 26 4 17 5 34 2 36 -3
3 -8 -9 -12 -26z"/>
<path d="M3845 2025 c-3 -26 -4 -49 -2 -51 3 -3 8 16 12 41 3 26 4 49 2 51 -3
3 -8 -16 -12 -41z"/>
<path d="M4246 1632 c-32 -99 -56 -185 -53 -193 4 -9 6 -7 6 6 1 11 26 93 57
183 30 89 54 167 52 172 -2 6 -30 -70 -62 -168z"/>
<path d="M4007 1731 c-4 -18 -6 -48 -6 -65 1 -21 4 -14 10 23 10 60 6 96 -4
42z"/>
<path d="M4182 1390 c0 -19 2 -27 5 -17 2 9 2 25 0 35 -3 9 -5 1 -5 -18z"/>
<path d="M4171 1249 c0 -57 4 -124 8 -149 4 -25 6 18 3 100 -3 80 -6 147 -8
149 -2 2 -4 -43 -3 -100z"/>
</g>
</svg>
