<?xml version="1.0" standalone="no"?>
<!DOCTYPE svg PUBLIC "-//W3C//DTD SVG 20010904//EN"
 "http://www.w3.org/TR/2001/REC-SVG-20010904/DTD/svg10.dtd">
<svg version="1.0" xmlns="http://www.w3.org/2000/svg"
 width="574.000000pt" height="435.000000pt" viewBox="0 0 574.000000 435.000000"
 preserveAspectRatio="xMidYMid meet">

<g transform="translate(0.000000,435.000000) scale(0.100000,-0.100000)"
fill="#000000" stroke="none">
<path d="M3044 4243 c-151 -185 -260 -262 -383 -271 -73 -5 -87 -2 -346 78
-290 88 -767 201 -994 235 -371 56 -647 -59 -1022 -425 -208 -203 -198 -230
126 -335 252 -81 298 -89 495 -90 156 0 183 3 250 24 87 27 180 72 335 162
149 87 235 125 351 155 129 32 271 43 430 32 219 -16 352 4 450 69 35 23 32
16 -62 -107 -166 -219 -295 -347 -384 -381 -67 -25 -124 -24 -266 6 -331 71
-592 25 -842 -148 -75 -51 -212 -190 -212 -214 0 -7 18 -22 40 -33 23 -12 80
-50 128 -86 48 -35 112 -77 142 -92 52 -25 63 -27 190 -27 116 0 145 3 205 24
182 62 346 163 534 328 63 55 59 44 -13 -42 -170 -201 -346 -358 -596 -530
-230 -160 -408 -322 -492 -450 -93 -142 -159 -313 -200 -519 -32 -158 -32
-507 0 -711 23 -147 82 -450 101 -522 19 -71 -3 -84 341 201 413 344 614 537
752 724 26 34 49 59 51 55 16 -28 60 -199 69 -271 6 -48 16 -93 21 -100 19
-24 153 64 276 182 41 39 71 62 67 52 -4 -11 -9 -60 -12 -110 -7 -114 5 -142
57 -139 35 2 36 1 53 -55 24 -77 113 -263 174 -364 80 -132 206 -365 231 -427
9 -20 20 -31 33 -31 43 0 217 162 319 295 98 129 161 259 189 390 21 94 17
284 -8 386 -18 72 -111 352 -142 427 -5 12 -15 62 -22 112 l-11 89 31 58 c177
323 252 536 252 711 0 80 17 55 40 -59 37 -179 21 -282 -79 -492 -94 -198
-113 -257 -118 -372 -11 -229 90 -495 274 -724 122 -152 721 -773 741 -769 27
5 81 175 141 448 78 354 58 715 -52 953 -64 139 -129 221 -353 442 -251 249
-308 312 -380 422 -64 98 -174 313 -159 313 2 0 27 -30 56 -67 74 -94 193
-211 261 -256 32 -21 92 -54 135 -75 70 -33 88 -37 174 -40 l97 -4 128 61 c71
33 130 65 132 70 14 41 -148 234 -261 314 -120 83 -213 110 -509 147 -86 10
-169 25 -185 33 -68 36 -122 110 -147 203 -40 151 -102 461 -93 470 4 5 264
-252 372 -367 101 -108 208 -184 375 -266 264 -129 482 -196 639 -195 120 1
174 15 334 90 108 51 111 55 76 125 -48 93 -121 161 -393 365 -171 128 -225
161 -320 197 -114 43 -150 47 -466 49 -342 3 -400 10 -507 62 -120 57 -144
106 -213 432 -49 236 -62 282 -77 282 -9 0 -12 -6 -8 -18 3 -11 26 -111 50
-223 72 -327 95 -389 163 -451 87 -78 245 -111 544 -112 114 0 202 -4 195 -8
-7 -5 6 -5 28 -1 60 12 144 7 211 -11 74 -21 134 -46 134 -58 0 -4 8 -8 18 -8
23 0 132 -71 132 -86 0 -7 11 -15 24 -18 22 -5 109 -67 197 -139 34 -29 34
-29 7 -23 -75 16 -76 14 -6 -9 63 -21 89 -36 138 -81 33 -31 58 -59 55 -64 -2
-4 6 -12 18 -19 22 -12 73 -89 64 -97 -12 -13 -330 95 -412 139 -29 16 -28 16
70 18 l100 3 -120 5 c-120 6 -120 6 -228 59 -60 28 -113 52 -119 52 -30 0 9
15 55 22 41 5 37 6 -23 3 -68 -4 -86 0 -200 39 l-124 43 58 7 c33 5 54 11 48
15 -6 4 7 18 34 35 24 15 44 30 44 33 0 3 -12 -3 -27 -13 -63 -41 -124 -64
-171 -64 -65 0 -337 74 -327 89 2 5 -18 11 -45 13 -32 3 -85 23 -154 57 -114
57 -181 103 -238 165 l-38 41 0 -27 c0 -42 28 -231 51 -343 23 -107 117 -461
143 -534 9 -24 16 -50 16 -58 0 -7 22 -75 50 -150 27 -75 48 -138 46 -140 -6
-6 -98 218 -137 332 -20 60 -41 111 -47 113 -5 1 -13 -29 -16 -69 -12 -119
-40 -191 -95 -248 -26 -27 -73 -63 -104 -81 -32 -18 -57 -34 -57 -36 0 -10 80
37 128 76 29 22 52 36 52 32 0 -35 -106 -223 -147 -261 -16 -14 -24 -23 -19
-18 27 20 22 1 -13 -55 -170 -278 -227 -344 -376 -433 -49 -29 -112 -70 -139
-89 -28 -19 -52 -34 -54 -32 -2 2 3 30 11 62 8 33 18 77 22 99 10 60 47 115
125 188 56 51 103 81 230 146 87 45 162 86 165 90 5 9 -146 -66 -273 -136 -35
-19 -79 -48 -98 -65 -19 -16 -34 -25 -34 -19 0 14 353 370 390 394 18 12 19
15 5 10 -13 -4 3 19 41 63 79 89 134 175 174 271 27 64 33 94 37 178 5 92 2
114 -36 275 -23 96 -64 294 -91 440 -54 294 -71 367 -130 552 -37 116 -53 148
-66 135 -3 -2 16 -66 41 -141 52 -156 63 -233 46 -332 -35 -198 -161 -322
-461 -454 -63 -27 -139 -65 -170 -83 -75 -44 -189 -160 -225 -230 -26 -50 -31
-54 -37 -35 -22 78 3 234 56 343 47 98 279 404 475 630 188 214 251 290 251
299 0 17 -28 2 -51 -27 -14 -17 -107 -124 -205 -237 -98 -113 -216 -255 -261
-315 -277 -374 -439 -596 -518 -710 -30 -44 -55 -77 -55 -73 0 9 90 164 170
293 74 118 163 242 330 459 58 75 116 151 130 170 47 63 125 161 230 291 124
153 126 155 107 155 -8 0 -54 -48 -103 -107z m-1652 3 c36 -8 92 -27 125 -43
78 -37 85 -39 38 -9 -22 14 -34 26 -28 26 7 0 110 -23 229 -50 236 -55 254
-64 384 -170 50 -41 57 -45 30 -16 -19 20 -58 53 -87 73 -29 20 -51 38 -49 40
5 6 186 -45 356 -99 69 -22 151 -44 183 -49 73 -12 160 2 227 35 46 23 49 24
40 6 -14 -26 -88 -68 -163 -92 -48 -16 -91 -21 -192 -22 -122 -1 -134 1 -187
26 -65 30 -78 29 -20 -1 l37 -20 -29 -1 c-42 0 -264 38 -315 55 -25 8 -49 11
-55 7 -6 -5 -47 -5 -91 -1 -44 4 -123 8 -176 8 -130 1 -197 24 -333 111 -61
38 -115 70 -120 70 -6 0 7 -11 29 -23 22 -13 76 -47 120 -75 44 -29 103 -60
130 -69 l50 -17 -65 -8 c-36 -5 -135 -20 -220 -34 -177 -30 -268 -29 -364 5
-33 12 -64 21 -70 20 -18 -1 118 -46 163 -54 23 -4 40 -9 38 -12 -3 -2 -83
-22 -178 -45 -308 -71 -332 -77 -486 -117 -151 -39 -153 -39 -153 -18 0 31 25
64 110 144 76 71 102 85 210 109 30 6 46 12 35 13 -11 1 -45 -5 -75 -13 -30
-8 -56 -13 -58 -11 -5 5 121 110 188 157 36 25 91 60 123 78 54 30 66 33 145
33 86 0 86 0 22 6 -36 3 -60 9 -55 12 18 11 115 41 163 49 67 13 315 4 394
-14z m361 -322 c4 -4 -16 -17 -43 -30 -28 -13 -50 -25 -50 -28 0 -3 26 7 58
22 71 33 152 34 328 3 170 -29 361 -44 479 -37 82 5 96 3 80 -7 -15 -9 -88
-11 -284 -9 -288 3 -358 -3 -512 -48 -100 -29 -260 -104 -363 -171 -33 -21
-63 -39 -67 -39 -4 0 57 64 135 142 77 78 132 135 121 128 -11 -8 -72 -67
-135 -131 -125 -127 -210 -189 -298 -220 -102 -37 -322 -64 -322 -40 0 4 21
16 46 26 25 9 43 19 41 21 -2 2 -31 -7 -65 -21 -73 -30 -90 -30 -207 -6 -147
31 -181 41 -164 53 10 7 5 8 -19 4 -24 -4 -66 7 -163 43 -127 48 -147 57 -138
65 9 8 786 196 811 196 5 0 -19 -22 -54 -48 -35 -26 -92 -72 -128 -101 -73
-59 -148 -100 -232 -127 -32 -9 -56 -19 -54 -22 7 -6 104 27 161 56 59 29 127
78 209 149 32 28 81 63 107 78 52 28 232 67 378 83 88 9 87 11 26 -33 -11 -8
4 -3 33 12 33 16 79 29 120 33 94 10 158 11 165 4z m1663 -91 c-18 -153 -67
-269 -138 -328 -18 -15 -26 -24 -18 -19 8 4 23 14 33 22 24 21 21 8 -9 -41
-48 -76 -107 -139 -148 -158 -23 -11 -30 -16 -16 -13 l25 6 -24 -25 c-37 -40
-191 -147 -212 -147 -11 0 -19 -7 -19 -15 0 -8 -4 -15 -9 -15 -5 0 -44 -27
-85 -60 -42 -33 -99 -74 -128 -92 -29 -17 -65 -43 -80 -56 -15 -14 -30 -24
-32 -21 -8 8 -46 110 -46 124 0 7 12 28 27 47 15 18 20 27 10 19 -22 -17 -22
-9 3 38 11 22 35 49 55 61 38 23 45 33 18 23 -11 -3 -4 9 16 30 31 32 41 37
80 37 l46 -1 -30 -14 c-37 -16 -27 -19 12 -4 15 7 75 15 133 19 l105 7 -142 1
c-79 1 -143 5 -143 8 0 21 232 140 293 150 20 4 37 12 37 18 0 6 17 19 38 28
43 20 137 82 179 118 78 68 131 162 157 283 11 48 19 29 12 -30z m67 -277 c16
-85 46 -228 68 -318 64 -260 55 -396 -39 -553 -69 -116 -109 -163 -341 -400
-152 -155 -238 -253 -288 -331 -10 -16 -12 -2 -12 72 -1 161 -40 313 -120 471
-22 46 -41 87 -41 93 0 11 5 13 110 54 113 43 219 95 278 135 131 89 233 234
273 388 15 61 69 471 69 531 0 6 4 12 8 12 4 0 20 -69 35 -154z m-77 67 c-3
-27 -13 -118 -21 -203 -9 -85 -18 -164 -22 -175 -6 -19 -7 -18 -14 5 -5 17 -7
6 -7 -35 0 -33 -7 -78 -15 -101 -36 -99 -108 -211 -128 -198 -5 3 -9 -1 -9 -9
0 -22 -100 -108 -170 -145 -59 -32 -61 -33 -50 -10 8 16 4 13 -14 -9 -17 -20
-45 -37 -79 -48 -28 -9 -70 -25 -91 -36 -22 -10 -41 -17 -43 -15 -2 2 1 15 7
30 5 15 9 51 9 79 -2 52 -2 51 -9 -15 -7 -69 -30 -118 -55 -118 -25 0 -28 44
-5 88 14 26 23 66 25 104 l4 63 -9 -62 c-9 -64 -36 -133 -51 -133 -9 0 -39 53
-39 69 0 21 51 121 75 147 14 15 25 31 25 36 0 33 268 230 305 224 13 -2 25 6
35 24 8 15 54 64 102 109 81 77 86 80 77 49 -5 -18 -9 -42 -8 -53 0 -11 7 4
14 32 8 29 29 81 46 115 30 58 33 61 40 38 4 -14 7 -18 8 -9 1 24 62 209 68
209 3 0 3 -21 -1 -47z m424 -177 c60 -31 127 -92 173 -156 l18 -25 -12 24 c-6
14 -32 46 -57 73 -24 26 -41 48 -35 48 34 0 221 -74 246 -97 46 -44 80 -103
93 -163 9 -41 13 -47 14 -25 l1 30 15 -27 c8 -16 17 -28 20 -28 6 0 -58 118
-89 165 -11 17 -30 38 -41 47 l-21 18 21 0 c11 0 40 -7 65 -15 24 -7 63 -19
87 -25 23 -6 59 -25 80 -43 30 -26 33 -27 13 -5 l-24 27 80 -24 c99 -31 185
-69 205 -93 9 -9 30 -42 47 -72 17 -30 31 -51 31 -46 0 5 -14 33 -30 63 -17
29 -26 53 -20 53 6 0 41 -15 78 -34 50 -25 84 -53 135 -109 37 -42 82 -86 99
-99 18 -12 -5 15 -50 61 -46 46 -81 85 -78 88 2 2 41 -12 86 -31 87 -39 139
-57 285 -101 l90 -27 -55 -29 c-30 -15 -68 -28 -85 -29 -22 0 -26 -3 -16 -9
20 -13 -119 -54 -164 -49 -18 2 -31 0 -29 -4 10 -15 -62 -8 -86 9 -24 16 -24
16 -11 0 16 -20 16 -20 -68 -6 -83 14 -115 34 -191 116 -33 36 -60 63 -60 58
0 -4 30 -38 67 -76 36 -38 64 -69 60 -69 -13 0 -155 54 -198 76 -64 32 -103
66 -160 142 -27 36 -49 62 -49 57 0 -10 56 -83 104 -132 22 -24 37 -43 33 -43
-16 0 -112 53 -120 66 -5 8 -12 12 -18 9 -15 -10 -128 55 -173 100 -22 22 -56
68 -74 103 -18 34 -35 62 -38 62 -6 0 34 -79 58 -112 11 -16 15 -28 9 -28 -17
0 -130 110 -234 228 -55 63 -122 130 -148 150 -64 49 -62 60 4 22 28 -17 81
-46 117 -64z m-1824 -77 c168 -35 231 -35 310 0 67 30 48 14 -76 -63 -58 -36
-115 -66 -127 -66 -13 0 -23 -5 -23 -10 0 -6 -43 -32 -96 -57 -101 -49 -146
-57 -244 -41 -31 5 -37 5 -20 -1 14 -5 43 -13 65 -16 l40 -7 -52 -18 c-49 -17
-152 -35 -233 -40 -119 -7 -530 -4 -530 5 0 18 74 85 95 85 14 0 16 3 7 9 -17
10 86 91 116 91 13 0 22 6 22 15 0 10 30 30 78 53 76 36 79 37 200 37 117 0
137 12 23 14 -64 1 -61 9 11 27 100 24 269 17 434 -17z m304 -79 c-23 -27 -71
-76 -106 -109 -74 -67 -224 -185 -224 -176 0 3 11 21 24 38 26 36 49 77 42 77
-2 0 -15 -19 -29 -43 -30 -51 -96 -114 -158 -150 -54 -31 -181 -82 -229 -91
-38 -8 -39 -8 25 40 11 8 4 6 -15 -6 -80 -48 -103 -55 -192 -54 -79 1 -94 4
-155 35 -37 19 -95 54 -128 79 -33 25 -73 54 -90 65 l-30 20 265 5 c146 3 268
1 271 -4 4 -4 15 -3 26 2 11 6 73 24 138 41 l118 30 -49 -51 c-83 -87 -88 -93
-109 -119 -11 -14 18 13 65 61 103 106 131 126 238 173 l83 37 -22 -33 c-19
-29 -18 -28 12 6 30 34 241 176 262 177 5 0 -10 -22 -33 -50z m160 9 c-6 -18
-10 -83 -10 -142 0 -156 35 -256 167 -486 108 -187 150 -281 184 -406 19 -74
19 -100 -1 -40 -7 20 -14 35 -16 33 -2 -2 6 -33 18 -68 18 -54 22 -89 22 -205
0 -139 -17 -261 -35 -250 -5 4 -9 -12 -9 -35 0 -23 -14 -76 -31 -118 -31 -80
-93 -198 -107 -204 -4 -2 -15 -19 -25 -38 -28 -56 -119 -154 -128 -139 -5 9
-10 5 -14 -14 -4 -15 -22 -40 -41 -56 -45 -40 -154 -114 -160 -108 -2 2 11 37
30 78 44 96 101 281 130 429 22 111 24 114 34 80 10 -32 11 -31 4 15 -7 56 -8
71 -4 270 2 96 6 133 12 118 16 -40 18 -24 4 25 -8 26 -24 117 -35 202 -11 85
-22 171 -25 190 -5 34 -5 34 25 -17 17 -28 35 -54 41 -58 6 -4 -3 15 -20 41
-45 72 -68 142 -90 277 -23 140 -26 201 -9 177 9 -12 10 -11 4 5 -44 134 -20
337 53 437 19 27 36 47 38 45 2 -2 -1 -19 -6 -38z m-115 -156 c-4 -16 -11 -93
-15 -173 -4 -80 -10 -154 -14 -165 -3 -11 0 -7 8 10 14 29 14 29 21 -40 4 -39
11 -97 16 -130 5 -33 9 -84 9 -113 0 -29 4 -51 8 -48 17 10 67 -328 57 -382
-4 -20 -2 -39 6 -48 8 -10 10 -61 7 -176 -4 -158 -5 -165 -34 -223 -16 -33
-55 -94 -85 -135 -57 -77 -81 -114 -62 -95 14 14 91 120 130 180 39 59 40 49
12 -88 -41 -202 -145 -502 -160 -461 -16 46 -40 203 -35 230 5 21 4 24 -2 9
-9 -19 -9 -19 -19 0 -6 11 -16 37 -23 58 -12 37 -10 43 34 132 31 62 55 130
71 200 13 59 32 119 41 133 16 24 16 26 1 13 -16 -12 -17 -6 -18 75 0 98 -20
265 -42 359 -38 161 -57 268 -51 293 3 15 28 69 56 121 27 51 47 95 46 97 -2
2 -28 -43 -58 -99 -52 -99 -54 -101 -63 -72 -5 17 -9 96 -10 176 l-1 147 33
53 c40 67 129 189 137 189 4 0 3 -12 -1 -27z m-256 -245 c-39 -68 -90 -154
-112 -193 -65 -115 -92 -149 -154 -195 -32 -24 -62 -48 -68 -54 -16 -16 47 25
88 56 20 16 37 28 37 26 0 -3 -27 -53 -60 -113 -34 -60 -84 -153 -112 -208
-57 -112 -103 -157 -253 -248 -47 -29 -85 -54 -85 -56 0 -11 164 91 223 139
26 22 47 37 47 34 0 -3 -18 -44 -40 -91 -22 -48 -67 -151 -101 -230 -33 -79
-76 -164 -95 -189 -19 -25 -89 -89 -155 -142 -115 -93 -192 -174 -233 -246
-24 -41 -7 -26 27 26 36 55 120 140 202 204 39 31 94 78 124 106 33 31 51 43
47 31 -4 -11 -32 -94 -62 -185 -31 -91 -66 -184 -79 -206 -14 -23 -67 -88
-120 -145 -73 -80 -106 -125 -140 -194 -25 -50 -45 -99 -44 -110 0 -11 10 7
22 40 13 33 39 87 60 120 37 61 45 71 156 191 62 68 63 68 56 34 -24 -115
-213 -671 -235 -693 -8 -9 -29 70 -50 193 -6 36 -16 86 -21 111 -29 135 -36
222 -23 273 17 62 16 70 -1 31 l-13 -30 -8 30 c-4 17 -8 104 -8 195 -1 160 0
167 26 220 34 68 29 79 -7 13 l-25 -48 4 40 c24 195 28 217 55 246 14 16 62
49 106 74 44 25 75 45 70 45 -13 0 -144 -76 -167 -97 -15 -13 -18 -13 -18 -2
0 29 29 119 65 205 30 72 50 102 104 158 36 37 100 93 141 124 84 62 110 85
65 58 -41 -25 -133 -95 -164 -126 -55 -53 -62 -53 -29 0 72 118 239 269 478
434 179 124 295 219 425 350 66 67 122 120 123 119 2 -1 -29 -57 -69 -125z
m585 25 c-10 -16 -33 -55 -50 -87 l-32 -60 -21 35 c-12 19 -21 37 -21 40 0 16
111 98 134 99 4 0 0 -12 -10 -27z m1226 -193 c25 -25 58 -71 75 -102 16 -31
31 -55 33 -53 3 2 -10 29 -27 60 -17 30 -28 55 -25 55 13 0 143 -100 190 -147
27 -27 36 -34 20 -16 -16 18 -28 35 -25 37 9 10 146 -57 187 -92 55 -47 152
-112 166 -112 6 0 -9 12 -34 26 -54 31 -133 94 -126 101 2 3 35 -2 73 -10 37
-9 102 -20 143 -26 87 -12 150 -29 150 -39 0 -8 -68 -45 -150 -81 -64 -29
-104 -35 -142 -22 -19 7 -34 8 -36 2 -4 -13 -68 4 -144 38 -76 34 -139 87
-180 150 -15 25 -28 41 -28 37 0 -5 9 -24 21 -42 35 -58 6 -38 -88 59 -118
122 -214 258 -238 337 -7 25 45 -21 185 -160z m-79 146 c24 -8 117 -24 205
-36 89 -12 183 -27 210 -35 l49 -13 -40 -2 c-25 -2 -9 -6 43 -11 73 -7 93 -13
154 -50 39 -23 73 -50 75 -60 3 -11 10 -19 16 -19 13 0 147 -130 147 -143 0
-4 -6 -5 -12 -1 -7 4 2 -8 21 -25 18 -18 31 -35 28 -38 -3 -3 -37 2 -74 11
-37 8 -97 20 -133 26 -123 21 -204 43 -184 51 13 5 4 8 -27 8 -33 1 -69 13
-135 47 -49 25 -93 49 -98 55 -6 5 16 10 60 11 l69 1 -75 6 c-76 7 -129 29
-190 80 -23 19 -24 20 -5 21 13 1 6 6 -18 15 -40 15 -137 90 -137 106 0 11 -2
12 51 -5z m-1647 -361 c9 -49 28 -139 41 -200 50 -222 69 -448 48 -546 -7 -29
-9 -23 -14 41 -5 66 -6 61 -7 -49 -2 -118 -4 -128 -38 -210 -50 -117 -59 -125
-80 -75 -10 21 -17 49 -16 62 1 13 -2 20 -8 17 -6 -4 -17 11 -26 32 -9 21 -29
67 -46 103 -38 81 -95 252 -114 338 -17 82 -18 252 -2 324 11 50 12 51 19 23
5 -23 7 -15 8 32 1 47 11 87 44 170 l42 108 6 -55 6 -55 1 57 c2 69 11 93 65
183 l42 70 7 -140 c3 -77 13 -180 22 -230z m1514 94 c3 -114 0 -151 -18 -225
-29 -120 -33 -127 -40 -69 -6 45 -7 42 -8 -31 -2 -79 -4 -84 -74 -225 -54
-108 -73 -138 -78 -124 -5 15 -9 11 -14 -20 -8 -43 -63 -151 -129 -254 l-42
-65 -6 50 -6 49 -1 -61 c-2 -59 -4 -62 -58 -122 -31 -34 -60 -62 -64 -62 -5 0
2 24 15 53 37 80 55 163 55 251 0 88 9 91 33 11 9 -27 16 -44 16 -37 1 8 -9
46 -21 85 -20 67 -23 70 -29 42 -4 -16 -7 -64 -8 -105 -2 -137 -51 -270 -134
-365 -24 -27 -58 -71 -77 -97 -37 -52 -50 -60 -44 -25 3 13 0 10 -7 -8 -7 -16
-20 -42 -31 -57 -20 -28 -96 -93 -103 -87 -2 3 12 29 31 59 20 30 56 95 80
143 25 48 49 85 54 82 6 -4 10 7 10 24 0 38 39 127 143 331 81 160 96 185 98
160 0 -8 7 5 14 30 8 25 55 108 105 185 49 77 102 163 116 190 23 43 28 47 35
30 7 -18 8 -18 8 4 1 13 20 67 43 120 36 83 43 92 49 71 6 -23 7 -23 8 7 1 17
10 69 21 115 11 46 20 97 20 113 l1 30 17 -30 c13 -23 17 -62 20 -166z m-1753
-76 c-95 -252 -83 -483 42 -789 l48 -119 0 -150 c0 -161 11 -154 15 10 l2 100
29 -60 c59 -123 59 -123 -1 -209 -58 -84 -77 -103 -66 -65 15 58 14 69 -3 20
-11 -32 -20 -49 -24 -40 -3 8 -6 1 -6 -14 -1 -19 -17 -45 -48 -79 -73 -78
-107 -107 -114 -96 -4 5 -9 -1 -12 -14 -4 -14 -46 -60 -94 -104 -136 -123
-164 -145 -173 -139 -5 3 -11 -3 -15 -13 -3 -11 -27 -37 -53 -59 -125 -105
-165 -135 -157 -117 16 41 15 57 -2 19 -26 -58 -27 -59 -105 -123 -112 -91
-141 -112 -146 -108 -2 3 18 62 46 133 46 119 80 219 178 528 l39 120 6 -70
c5 -69 6 -68 7 30 2 93 6 111 61 275 33 96 71 202 85 235 l25 60 2 -50 c1 -44
3 -41 11 29 9 85 25 127 137 360 60 126 67 137 72 110 6 -27 7 -26 8 11 1 22
11 60 22 85 25 57 211 391 215 387 2 -1 -13 -44 -31 -94z m1974 -133 c68 -103
165 -213 330 -375 230 -225 293 -296 355 -400 37 -61 44 -81 24 -69 -7 4 -3
-6 9 -22 35 -50 56 -96 74 -169 26 -100 25 -104 -23 -60 l-42 40 46 -52 c52
-59 58 -82 58 -202 0 -64 -3 -82 -11 -71 -9 12 -10 11 -4 -5 16 -45 17 -100 5
-209 -7 -64 -16 -116 -21 -116 -5 0 -9 -18 -9 -40 0 -40 -24 -156 -40 -195 -5
-11 -11 -35 -14 -53 -3 -18 -18 -72 -33 -120 -31 -99 -27 -103 -58 68 -17 88
-89 359 -114 423 -14 36 -14 60 0 51 6 -3 -1 12 -14 33 -20 31 -117 331 -117
360 0 4 15 -6 33 -23 l32 -29 -26 30 c-42 48 -55 74 -88 172 -17 51 -53 155
-80 232 -27 77 -47 142 -44 144 2 3 -3 16 -11 29 -14 22 -116 281 -116 295 0
4 12 -4 27 -18 20 -18 18 -13 -9 21 -20 25 -53 88 -73 140 -20 52 -52 131 -71
176 -51 122 -47 125 25 14z m-71 -47 c11 -32 23 -73 27 -90 4 -18 10 -33 14
-33 5 0 18 -34 31 -76 16 -55 21 -93 18 -140 -2 -38 0 -59 5 -51 5 7 7 -32 4
-93 -6 -123 -25 -181 -100 -310 -28 -47 -77 -134 -108 -195 -32 -60 -58 -102
-59 -93 0 9 -6 21 -13 25 -22 13 -61 162 -62 235 0 36 -4 64 -9 61 -16 -10 4
119 31 197 14 41 52 131 83 200 32 69 65 147 74 173 22 67 38 183 30 225 -10
53 10 32 34 -35z m21 35 c6 -18 7 -28 2 -23 -10 12 -25 55 -18 55 3 0 10 -15
16 -32z m51 -122 c0 -12 -5 -7 -19 24 -11 24 -11 24 3 6 9 -11 16 -24 16 -30z
m121 -325 c30 -86 39 -130 41 -185 1 -68 1 -69 7 -21 l7 50 17 -39 c9 -21 17
-41 17 -45 0 -3 23 -68 50 -143 41 -113 50 -150 52 -210 1 -68 2 -70 7 -23 l6
50 27 -85 c49 -154 108 -365 108 -387 0 -12 4 -23 8 -25 10 -4 90 -259 131
-418 34 -133 56 -258 46 -268 -8 -8 -171 165 -180 191 -4 9 -12 17 -19 17 -14
0 -170 160 -195 201 -10 16 -20 26 -23 24 -3 -3 -48 41 -99 98 -240 267 -250
279 -242 321 4 20 2 27 -6 22 -6 -4 -11 -1 -12 6 0 7 -4 5 -7 -5 -6 -14 -15
-4 -45 46 -20 35 -37 74 -37 86 0 36 62 172 75 167 8 -3 15 7 19 26 3 16 31
74 61 127 30 54 66 125 79 158 54 139 58 305 11 473 -14 49 -25 93 -24 97 1
12 75 -178 120 -306z m-907 -158 c-43 -80 -74 -125 -123 -173 -63 -62 -54 -60
17 5 l34 30 -17 -40 c-9 -22 -29 -69 -45 -105 -89 -211 -217 -425 -279 -467
-40 -27 -108 -49 -118 -39 -5 4 -7 47 -6 96 3 107 26 183 86 277 43 68 49 80
105 204 31 69 71 110 149 155 85 49 209 133 228 154 35 39 26 11 -31 -97z
m325 -208 c12 -38 42 -124 66 -192 48 -131 79 -249 89 -328 5 -48 5 -49 -10
-25 -11 17 -13 19 -9 5 17 -50 28 -144 21 -180 l-8 -40 -14 30 c-8 17 -11 21
-8 10 17 -56 15 -103 -10 -175 -14 -41 -30 -76 -36 -78 -5 -2 -10 -11 -10 -21
0 -19 -66 -124 -118 -189 -26 -31 -37 -39 -43 -30 -6 9 -9 6 -9 -9 0 -13 -17
-41 -37 -64 -33 -36 -38 -39 -44 -22 -7 16 -8 15 -8 -5 -1 -22 -84 -122 -102
-122 -4 0 -1 19 6 43 25 72 45 216 45 316 0 71 3 92 11 81 9 -12 9 -11 4 5 -9
25 -47 407 -41 413 3 2 21 -28 40 -67 50 -98 54 -89 5 12 -21 45 -44 109 -49
142 -11 68 -12 257 -1 295 7 23 8 22 15 -14 4 -21 9 -36 12 -34 2 3 -1 30 -7
62 l-12 57 34 34 c40 41 46 42 52 13 3 -16 5 -12 6 12 1 19 8 43 15 53 13 17
15 13 26 -38 16 -75 23 -65 8 12 l-11 60 49 79 49 79 6 -55 c3 -30 16 -86 28
-125z m-299 -182 c0 -42 -68 -134 -181 -244 -65 -65 -119 -120 -119 -125 0 -4
11 3 25 16 30 28 32 22 5 -22 -11 -18 -20 -37 -20 -43 0 -5 16 18 36 53 19 34
73 103 119 152 46 49 92 103 101 120 10 16 21 30 24 30 3 0 5 -51 4 -112 -1
-98 -4 -122 -27 -178 -14 -35 -25 -66 -23 -67 5 -5 46 93 46 108 0 7 2 10 5 7
3 -2 12 -79 21 -169 15 -161 15 -284 -1 -324 l-8 -20 17 20 c16 19 17 13 12
-120 -6 -163 -47 -355 -76 -355 -3 0 -14 26 -25 58 -10 31 -24 62 -31 68 -18
15 -63 106 -70 143 -4 17 -10 28 -15 25 -9 -5 -42 43 -78 113 l-21 42 20 52
c10 29 15 48 10 43 -5 -5 -16 -27 -23 -49 l-14 -39 -19 29 c-13 21 -21 55 -25
119 l-6 91 -2 -70 -2 -70 -34 69 c-24 47 -33 78 -29 95 4 20 3 22 -5 11 -5 -8
-11 -12 -13 -10 -9 11 -50 141 -47 145 2 2 40 27 84 56 86 56 217 182 308 297
58 73 77 87 77 55z"/>
<path d="M1035 4171 c44 -11 93 -24 109 -30 16 -7 31 -9 33 -7 8 7 -118 44
-173 50 -35 4 -26 0 31 -13z"/>
<path d="M1600 4166 c0 -3 9 -10 20 -16 11 -6 20 -8 20 -6 0 3 -9 10 -20 16
-11 6 -20 8 -20 6z"/>
<path d="M1675 4115 c17 -14 48 -40 70 -56 32 -25 30 -22 -10 15 -27 26 -59
51 -70 57 -11 5 -6 -2 10 -16z"/>
<path d="M1800 4015 c19 -23 100 -69 107 -61 4 3 2 6 -4 6 -6 0 -35 16 -63 35
-29 20 -47 29 -40 20z"/>
<path d="M618 3953 c12 -2 30 -2 40 0 9 3 -1 5 -23 4 -22 0 -30 -2 -17 -4z"/>
<path d="M718 3943 c6 -2 18 -2 25 0 6 3 1 5 -13 5 -14 0 -19 -2 -12 -5z"/>
<path d="M768 3933 c7 -3 16 -2 19 1 4 3 -2 6 -13 5 -11 0 -14 -3 -6 -6z"/>
<path d="M1272 3738 c-159 -152 -153 -145 -117 -121 37 25 263 243 252 243 -4
0 -65 -55 -135 -122z"/>
<path d="M1061 3565 c-70 -45 -79 -56 -16 -21 45 26 86 56 75 56 -3 0 -29 -16
-59 -35z"/>
<path d="M3178 3453 c7 -3 16 -2 19 1 4 3 -2 6 -13 5 -11 0 -14 -3 -6 -6z"/>
<path d="M3128 3443 c6 -2 18 -2 25 0 6 3 1 5 -13 5 -14 0 -19 -2 -12 -5z"/>
<path d="M3063 3433 c9 -2 25 -2 35 0 9 3 1 5 -18 5 -19 0 -27 -2 -17 -5z"/>
<path d="M3030 3274 l-45 -14 40 6 c22 3 47 10 55 15 21 12 3 10 -50 -7z"/>
<path d="M2664 3204 c-18 -14 -18 -14 6 -3 31 14 36 19 24 19 -6 0 -19 -7 -30
-16z"/>
<path d="M2613 3100 c-24 -10 -43 -22 -43 -25 0 -3 15 2 33 12 23 12 66 19
147 24 l115 5 -105 2 c-85 1 -113 -2 -147 -18z"/>
<path d="M3323 3400 c0 -25 2 -35 4 -22 2 12 2 32 0 45 -2 12 -4 2 -4 -23z"/>
<path d="M3332 3320 c0 -14 2 -19 5 -12 2 6 2 18 0 25 -3 6 -5 1 -5 -13z"/>
<path d="M3233 3120 c0 -41 2 -58 4 -37 2 20 2 54 0 75 -2 20 -4 3 -4 -38z"/>
<path d="M2998 3128 c-22 -34 -42 -74 -31 -63 14 15 55 85 50 85 -3 0 -11 -10
-19 -22z"/>
<path d="M3026 3125 c-3 -9 -6 -22 -5 -28 0 -7 5 -1 10 12 5 13 8 26 5 28 -2
2 -6 -3 -10 -12z"/>
<path d="M3012 3050 c0 -19 2 -27 5 -17 2 9 2 25 0 35 -3 9 -5 1 -5 -18z"/>
<path d="M2936 3010 c-9 -22 -16 -48 -16 -58 1 -9 9 8 20 38 22 65 20 79 -4
20z"/>
<path d="M3214 2990 c-7 -30 -10 -57 -9 -59 6 -6 26 80 23 97 -2 9 -8 -8 -14
-38z"/>
<path d="M2911 2914 c0 -11 3 -14 6 -6 3 7 2 16 -1 19 -3 4 -6 -2 -5 -13z"/>
<path d="M2881 2819 c-7 -24 -24 -64 -37 -89 -19 -35 -20 -40 -5 -22 22 25 64
129 58 145 -1 5 -9 -10 -16 -34z"/>
<path d="M3001 2834 c0 -11 3 -14 6 -6 3 7 2 16 -1 19 -3 4 -6 -2 -5 -13z"/>
<path d="M4461 3176 c12 -20 23 -36 25 -36 7 0 -25 58 -36 65 -5 3 -1 -10 11
-29z"/>
<path d="M4529 3055 c18 -33 40 -67 48 -75 8 -8 -4 16 -25 53 -51 86 -66 102
-23 22z"/>
<path d="M4769 2998 c16 -41 58 -121 76 -143 9 -11 2 6 -16 38 -37 68 -34 85
5 29 15 -22 39 -50 53 -63 15 -13 -4 14 -42 61 -88 109 -88 110 -76 78z"/>
<path d="M5060 2884 c0 -7 71 -36 76 -31 2 2 -14 11 -36 20 -22 8 -40 13 -40
11z"/>
<path d="M4860 2826 c0 -2 8 -10 18 -17 15 -13 16 -12 3 4 -13 16 -21 21 -21
13z"/>
<path d="M4942 2814 c10 -10 20 -16 22 -13 3 3 -5 11 -17 18 -21 13 -21 12 -5
-5z"/>
<path d="M1678 3333 c7 -3 16 -2 19 1 4 3 -2 6 -13 5 -11 0 -14 -3 -6 -6z"/>
<path d="M1799 3290 c52 -22 96 -38 98 -37 4 5 -168 77 -182 77 -5 0 32 -18
84 -40z"/>
<path d="M1303 3253 c15 -2 37 -2 50 0 12 2 0 4 -28 4 -27 0 -38 -2 -22 -4z"/>
<path d="M1393 3243 c9 -2 23 -2 30 0 6 3 -1 5 -18 5 -16 0 -22 -2 -12 -5z"/>
<path d="M1918 3243 c7 -3 16 -2 19 1 4 3 -2 6 -13 5 -11 0 -14 -3 -6 -6z"/>
<path d="M1448 3233 c7 -3 16 -2 19 1 4 3 -2 6 -13 5 -11 0 -14 -3 -6 -6z"/>
<path d="M1958 3233 c6 -2 18 -2 25 0 6 3 1 5 -13 5 -14 0 -19 -2 -12 -5z"/>
<path d="M1555 3194 c44 -20 89 -38 100 -41 11 -2 -19 14 -67 36 -49 23 -94
41 -100 41 -7 0 23 -16 67 -36z"/>
<path d="M2018 3223 c12 -2 30 -2 40 0 9 3 -1 5 -23 4 -22 0 -30 -2 -17 -4z"/>
<path d="M1183 3153 c20 -2 54 -2 75 0 20 2 3 4 -38 4 -41 0 -58 -2 -37 -4z"/>
<path d="M1318 3143 c7 -3 16 -2 19 1 4 3 -2 6 -13 5 -11 0 -14 -3 -6 -6z"/>
<path d="M1427 3100 c29 -17 56 -30 60 -30 12 0 -90 60 -102 60 -5 0 13 -14
42 -30z"/>
<path d="M1527 2985 c-20 -14 -37 -28 -37 -31 0 -2 18 8 40 22 35 23 47 34 37
34 -1 0 -19 -11 -40 -25z"/>
<path d="M1425 2920 c-27 -17 -46 -30 -42 -30 13 0 85 39 92 50 8 14 7 13 -50
-20z"/>
<path d="M1298 2873 c6 -2 18 -2 25 0 6 3 1 5 -13 5 -14 0 -19 -2 -12 -5z"/>
<path d="M2416 2781 c10 -18 51 -70 90 -115 97 -110 158 -175 142 -150 -7 11
-50 61 -96 111 -46 50 -95 108 -109 129 -35 52 -50 67 -27 25z"/>
<path d="M2683 2460 c13 -19 43 -71 65 -115 23 -44 41 -77 42 -72 1 16 -80
163 -106 192 l-26 30 25 -35z"/>
<path d="M2532 2308 c12 -18 36 -51 53 -73 16 -22 38 -52 48 -65 18 -25 18
-25 1 5 -22 39 -114 165 -121 165 -2 0 6 -15 19 -32z"/>
<path d="M2687 2065 c15 -30 29 -53 31 -51 4 5 -46 106 -53 106 -3 0 7 -25 22
-55z"/>
<path d="M2530 1921 c0 -6 4 -13 10 -16 6 -3 7 1 4 9 -7 18 -14 21 -14 7z"/>
<path d="M2751 1900 c0 -8 4 -24 9 -35 5 -13 9 -14 9 -5 0 8 -4 24 -9 35 -5
13 -9 14 -9 5z"/>
<path d="M2551 1885 c0 -5 15 -39 34 -75 19 -36 34 -60 34 -55 0 6 -15 39 -34
75 -19 36 -34 61 -34 55z"/>
<path d="M2771 1824 c0 -11 3 -14 6 -6 3 7 2 16 -1 19 -3 4 -6 -2 -5 -13z"/>
<path d="M2782 1770 c0 -14 2 -19 5 -12 2 6 2 18 0 25 -3 6 -5 1 -5 -13z"/>
<path d="M2641 1664 c0 -11 3 -14 6 -6 3 7 2 16 -1 19 -3 4 -6 -2 -5 -13z"/>
<path d="M2652 1610 c0 -19 2 -27 5 -17 2 9 2 25 0 35 -3 9 -5 1 -5 -18z"/>
<path d="M2491 1544 c0 -11 3 -14 6 -6 3 7 2 16 -1 19 -3 4 -6 -2 -5 -13z"/>
<path d="M2663 1520 c0 -25 2 -35 4 -22 2 12 2 32 0 45 -2 12 -4 2 -4 -23z"/>
<path d="M2502 1495 c0 -16 2 -22 5 -12 2 9 2 23 0 30 -3 6 -5 -1 -5 -18z"/>
<path d="M2512 1430 c0 -19 2 -27 5 -17 2 9 2 25 0 35 -3 9 -5 1 -5 -18z"/>
<path d="M2652 1425 c0 -16 2 -22 5 -12 2 9 2 23 0 30 -3 6 -5 -1 -5 -18z"/>
<path d="M2513 1315 c0 -27 2 -38 4 -22 2 15 2 37 0 50 -2 12 -4 0 -4 -28z"/>
<path d="M2501 1234 c0 -11 3 -14 6 -6 3 7 2 16 -1 19 -3 4 -6 -2 -5 -13z"/>
<path d="M2366 2439 c-8 -42 0 -50 9 -9 4 17 5 34 2 36 -2 3 -7 -10 -11 -27z"/>
<path d="M2322 2310 c-17 -44 -32 -85 -32 -92 0 -7 16 27 36 75 20 49 34 90
32 92 -2 2 -18 -32 -36 -75z"/>
<path d="M2393 1939 c-12 -21 -17 -37 -12 -33 11 6 42 64 37 69 -2 2 -13 -14
-25 -36z"/>
<path d="M2246 1375 c-9 -26 -7 -32 5 -12 6 10 9 21 6 23 -2 3 -7 -2 -11 -11z"/>
<path d="M1640 2399 c-41 -20 -72 -38 -68 -38 10 -1 158 69 158 75 0 8 -15 2
-90 -37z"/>
<path d="M1464 2319 c-43 -22 -83 -45 -89 -51 -9 -8 173 78 184 88 17 15 -28
-3 -95 -37z"/>
<path d="M1305 1870 c-33 -22 -66 -40 -72 -40 -7 0 -13 -4 -13 -10 0 -5 -6 -7
-14 -4 -8 3 -23 1 -33 -5 -15 -9 -12 -10 12 -4 27 6 23 -1 -48 -77 -74 -78
-163 -198 -154 -207 2 -2 24 27 48 64 56 87 185 216 272 272 58 38 75 51 64
51 -1 0 -29 -18 -62 -40z"/>
<path d="M990 1129 c-7 -11 -10 -23 -7 -25 2 -2 9 7 15 21 14 30 7 33 -8 4z"/>
<path d="M966 1075 c-9 -26 -7 -32 5 -12 6 10 9 21 6 23 -2 3 -7 -2 -11 -11z"/>
<path d="M4219 2462 c5 -10 18 -25 27 -33 11 -9 9 -2 -6 19 -26 35 -36 42 -21
14z"/>
<path d="M4260 2407 c0 -2 15 -16 33 -33 l32 -29 -29 33 c-28 30 -36 37 -36
29z"/>
<path d="M4163 2773 c9 -2 23 -2 30 0 6 3 -1 5 -18 5 -16 0 -22 -2 -12 -5z"/>
<path d="M4093 2763 c9 -2 23 -2 30 0 6 3 -1 5 -18 5 -16 0 -22 -2 -12 -5z"/>
<path d="M3993 2753 c15 -2 37 -2 50 0 12 2 0 4 -28 4 -27 0 -38 -2 -22 -4z"/>
<path d="M4337 2683 c18 -2 50 -2 70 0 21 2 7 4 -32 4 -38 0 -55 -2 -38 -4z"/>
<path d="M4268 2673 c7 -3 16 -2 19 1 4 3 -2 6 -13 5 -11 0 -14 -3 -6 -6z"/>
<path d="M4218 2663 c6 -2 18 -2 25 0 6 3 1 5 -13 5 -14 0 -19 -2 -12 -5z"/>
<path d="M4458 2553 c17 -2 47 -2 65 0 17 2 3 4 -33 4 -36 0 -50 -2 -32 -4z"/>
<path d="M4373 2543 c9 -2 23 -2 30 0 6 3 -1 5 -18 5 -16 0 -22 -2 -12 -5z"/>
<path d="M4575 2540 c11 -5 27 -9 35 -9 9 0 8 4 -5 9 -11 5 -27 9 -35 9 -9 0
-8 -4 5 -9z"/>
<path d="M2052 2540 c0 -14 2 -19 5 -12 2 6 2 18 0 25 -3 6 -5 1 -5 -13z"/>
<path d="M2062 2490 c0 -14 2 -19 5 -12 2 6 2 18 0 25 -3 6 -5 1 -5 -13z"/>
<path d="M2100 2365 c0 -5 5 -17 10 -25 5 -8 10 -10 10 -5 0 6 -5 17 -10 25
-5 8 -10 11 -10 5z"/>
<path d="M1952 2305 c0 -16 2 -22 5 -12 2 9 2 23 0 30 -3 6 -5 -1 -5 -18z"/>
<path d="M2135 2283 c4 -10 14 -37 22 -61 8 -24 17 -41 19 -39 6 5 -36 117
-43 117 -3 0 -2 -8 2 -17z"/>
<path d="M1961 2254 c0 -11 3 -14 6 -6 3 7 2 16 -1 19 -3 4 -6 -2 -5 -13z"/>
<path d="M1971 2220 c0 -8 4 -24 9 -35 5 -13 9 -14 9 -5 0 8 -4 24 -9 35 -5
13 -9 14 -9 5z"/>
<path d="M2187 2150 c3 -14 12 -41 20 -60 11 -30 12 -31 8 -6 -4 16 -13 43
-20 60 -11 23 -13 25 -8 6z"/>
<path d="M1991 2157 c-1 -12 41 -108 45 -104 3 2 -7 28 -20 58 -14 30 -25 50
-25 46z"/>
<path d="M2222 2030 c0 -14 2 -19 5 -12 2 6 2 18 0 25 -3 6 -5 1 -5 -13z"/>
<path d="M2041 2035 c0 -5 6 -21 14 -35 8 -14 14 -20 14 -15 0 6 -6 21 -14 35
-8 14 -14 21 -14 15z"/>
<path d="M2231 1984 c0 -11 3 -14 6 -6 3 7 2 16 -1 19 -3 4 -6 -2 -5 -13z"/>
<path d="M2242 1935 c0 -16 2 -22 5 -12 2 9 2 23 0 30 -3 6 -5 -1 -5 -18z"/>
<path d="M2081 1935 c1 -19 18 -51 18 -35 0 8 -4 22 -9 30 -5 8 -9 11 -9 5z"/>
<path d="M2111 1834 c0 -11 3 -14 6 -6 3 7 2 16 -1 19 -3 4 -6 -2 -5 -13z"/>
<path d="M2122 1790 c0 -14 2 -19 5 -12 2 6 2 18 0 25 -3 6 -5 1 -5 -13z"/>
<path d="M2133 1690 c0 -25 2 -35 4 -22 2 12 2 32 0 45 -2 12 -4 2 -4 -23z"/>
<path d="M2122 1595 c0 -16 2 -22 5 -12 2 9 2 23 0 30 -3 6 -5 -1 -5 -18z"/>
<path d="M3612 2460 c0 -19 2 -27 5 -17 2 9 2 25 0 35 -3 9 -5 1 -5 -18z"/>
<path d="M3622 2395 c0 -16 2 -22 5 -12 2 9 2 23 0 30 -3 6 -5 -1 -5 -18z"/>
<path d="M3502 2300 c0 -14 2 -19 5 -12 2 6 2 18 0 25 -3 6 -5 1 -5 -13z"/>
<path d="M3492 2240 c0 -19 2 -27 5 -17 2 9 2 25 0 35 -3 9 -5 1 -5 -18z"/>
<path d="M3483 1995 c0 -22 2 -30 4 -17 2 12 2 30 0 40 -3 9 -5 -1 -4 -23z"/>
<path d="M2982 1355 c0 -16 2 -22 5 -12 2 9 2 23 0 30 -3 6 -5 -1 -5 -18z"/>
<path d="M2971 1304 c0 -11 3 -14 6 -6 3 7 2 16 -1 19 -3 4 -6 -2 -5 -13z"/>
<path d="M1733 2015 c0 -22 2 -30 4 -17 2 12 2 30 0 40 -3 9 -5 -1 -4 -23z"/>
<path d="M1742 1940 c0 -14 2 -19 5 -12 2 6 2 18 0 25 -3 6 -5 1 -5 -13z"/>
<path d="M1751 1884 c0 -11 3 -14 6 -6 3 7 2 16 -1 19 -3 4 -6 -2 -5 -13z"/>
<path d="M1761 1844 c0 -11 3 -14 6 -6 3 7 2 16 -1 19 -3 4 -6 -2 -5 -13z"/>
<path d="M1771 1804 c0 -11 3 -14 6 -6 3 7 2 16 -1 19 -3 4 -6 -2 -5 -13z"/>
<path d="M1811 1675 c0 -5 6 -32 14 -60 8 -29 14 -40 14 -26 l1 23 21 -23 c11
-13 7 -4 -9 21 -16 25 -32 52 -35 60 -3 8 -6 11 -6 5z"/>
<path d="M1522 1545 c0 -16 2 -22 5 -12 2 9 2 23 0 30 -3 6 -5 -1 -5 -18z"/>
<path d="M1842 1540 c0 -14 2 -19 5 -12 2 6 2 18 0 25 -3 6 -5 1 -5 -13z"/>
<path d="M1900 1528 c0 -3 11 -30 25 -60 14 -29 25 -46 24 -38 0 15 -48 111
-49 98z"/>
<path d="M1852 1485 c0 -16 2 -22 5 -12 2 9 2 23 0 30 -3 6 -5 -1 -5 -18z"/>
<path d="M1532 1475 c0 -16 2 -22 5 -12 2 9 2 23 0 30 -3 6 -5 -1 -5 -18z"/>
<path d="M1864 1345 c0 -60 1 -84 3 -52 2 32 2 81 0 110 -2 29 -3 3 -3 -58z"/>
<path d="M1542 1420 c0 -14 2 -19 5 -12 2 6 2 18 0 25 -3 6 -5 1 -5 -13z"/>
<path d="M1951 1394 c0 -11 3 -14 6 -6 3 7 2 16 -1 19 -3 4 -6 -2 -5 -13z"/>
<path d="M1551 1374 c0 -11 3 -14 6 -6 3 7 2 16 -1 19 -3 4 -6 -2 -5 -13z"/>
<path d="M1961 1354 c0 -11 3 -14 6 -6 3 7 2 16 -1 19 -3 4 -6 -2 -5 -13z"/>
<path d="M1562 1330 c0 -14 2 -19 5 -12 2 6 2 18 0 25 -3 6 -5 1 -5 -13z"/>
<path d="M1972 1305 c0 -16 2 -22 5 -12 2 9 2 23 0 30 -3 6 -5 -1 -5 -18z"/>
<path d="M1572 1270 c0 -14 2 -19 5 -12 2 6 2 18 0 25 -3 6 -5 1 -5 -13z"/>
<path d="M1582 1215 c0 -16 2 -22 5 -12 2 9 2 23 0 30 -3 6 -5 -1 -5 -18z"/>
<path d="M1852 1205 c0 -16 2 -22 5 -12 2 9 2 23 0 30 -3 6 -5 -1 -5 -18z"/>
<path d="M1592 1104 c-1 -39 -4 -93 -7 -120 l-4 -49 10 49 c5 26 8 80 6 120
l-3 71 -2 -71z"/>
<path d="M1842 1150 c0 -14 2 -19 5 -12 2 6 2 18 0 25 -3 6 -5 1 -5 -13z"/>
<path d="M1831 1104 c0 -11 3 -14 6 -6 3 7 2 16 -1 19 -3 4 -6 -2 -5 -13z"/>
<path d="M1342 965 c0 -16 2 -22 5 -12 2 9 2 23 0 30 -3 6 -5 -1 -5 -18z"/>
<path d="M1572 910 c0 -14 2 -19 5 -12 2 6 2 18 0 25 -3 6 -5 1 -5 -13z"/>
<path d="M1353 840 c0 -47 2 -66 4 -42 2 23 2 61 0 85 -2 23 -4 4 -4 -43z"/>
<path d="M1561 873 c-1 -6 -4 -20 -7 -30 -5 -17 -5 -17 6 0 6 10 9 23 6 30 -3
9 -5 9 -5 0z"/>
<path d="M1342 730 c0 -14 2 -19 5 -12 2 6 2 18 0 25 -3 6 -5 1 -5 -13z"/>
<path d="M1331 674 c0 -11 3 -14 6 -6 3 7 2 16 -1 19 -3 4 -6 -2 -5 -13z"/>
<path d="M4080 2026 c0 -2 8 -10 18 -17 15 -13 16 -12 3 4 -13 16 -21 21 -21
13z"/>
<path d="M4133 1982 c3 -4 32 -25 64 -46 32 -22 84 -57 116 -78 31 -22 57 -37
57 -34 0 6 -57 46 -168 119 -41 26 -71 44 -69 39z"/>
<path d="M4434 1768 c28 -26 75 -73 105 -105 33 -36 42 -43 23 -18 -31 40
-105 114 -153 150 -14 11 -3 -1 25 -27z"/>
<path d="M4150 1736 c0 -2 8 -10 18 -17 15 -13 16 -12 3 4 -13 16 -21 21 -21
13z"/>
<path d="M4190 1687 c0 -3 27 -28 60 -57 33 -29 60 -50 60 -47 0 3 -27 28 -60
57 -33 29 -60 50 -60 47z"/>
<path d="M4590 1596 c0 -2 8 -10 18 -17 15 -13 16 -12 3 4 -13 16 -21 21 -21
13z"/>
<path d="M4320 1576 c0 -2 8 -10 18 -17 15 -13 16 -12 3 4 -13 16 -21 21 -21
13z"/>
<path d="M4360 1546 c0 -2 8 -10 18 -17 15 -13 16 -12 3 4 -13 16 -21 21 -21
13z"/>
<path d="M4420 1495 c13 -14 26 -25 28 -25 3 0 -5 11 -18 25 -13 14 -26 25
-28 25 -3 0 5 -11 18 -25z"/>
<path d="M4527 1391 c65 -77 69 -81 58 -61 -4 8 -17 25 -28 37 -31 34 -17 35
38 2 65 -39 29 -9 -57 46 l-67 43 56 -67z"/>
<path d="M4599 1295 c5 -11 17 -29 26 -40 l16 -20 -10 20 c-5 11 -17 29 -26
40 l-16 20 10 -20z"/>
<path d="M4651 1210 c14 -31 19 -36 19 -24 0 6 -7 19 -16 30 -14 18 -14 18 -3
-6z"/>
<path d="M4680 1145 c0 -5 5 -17 10 -25 5 -8 10 -10 10 -5 0 6 -5 17 -10 25
-5 8 -10 11 -10 5z"/>
<path d="M4440 1107 c0 -1 35 -36 78 -77 l77 -75 -75 78 c-69 71 -80 82 -80
74z"/>
<path d="M4710 1075 c0 -5 5 -17 10 -25 5 -8 10 -10 10 -5 0 6 -5 17 -10 25
-5 8 -10 11 -10 5z"/>
<path d="M4605 926 c10 -14 19 -26 22 -26 7 0 -17 39 -28 46 -6 3 -3 -5 6 -20z"/>
<path d="M4651 850 c14 -31 19 -36 19 -24 0 6 -7 19 -16 30 -14 18 -14 18 -3
-6z"/>
<path d="M4523 723 c27 -35 50 -63 53 -63 7 0 -65 97 -83 111 -10 8 4 -14 30
-48z"/>
<path d="M4607 595 c9 -19 18 -33 21 -31 4 5 -26 66 -33 66 -3 0 3 -16 12 -35z"/>
<path d="M3882 2200 c0 -14 2 -19 5 -12 2 6 2 18 0 25 -3 6 -5 1 -5 -13z"/>
<path d="M3872 2140 c0 -14 2 -19 5 -12 2 6 2 18 0 25 -3 6 -5 1 -5 -13z"/>
<path d="M3810 1977 c-12 -23 -32 -58 -43 -77 -11 -19 -15 -30 -9 -25 14 13
83 137 79 141 -2 2 -14 -15 -27 -39z"/>
<path d="M3921 1923 c-1 -6 -4 -20 -7 -30 -5 -17 -5 -17 6 0 6 10 9 23 6 30
-3 9 -5 9 -5 0z"/>
<path d="M3891 1843 c-10 -26 -10 -27 4 -9 8 11 15 23 15 28 0 15 -7 8 -19
-19z"/>
<path d="M3706 1806 c-20 -30 -39 -63 -42 -73 -4 -10 11 9 33 42 51 79 55 85
50 85 -3 0 -21 -24 -41 -54z"/>
<path d="M3850 1770 c-6 -11 -8 -20 -6 -20 3 0 10 9 16 20 6 11 8 20 6 20 -3
0 -10 -9 -16 -20z"/>
<path d="M3820 1720 c-6 -11 -8 -20 -6 -20 3 0 10 9 16 20 6 11 8 20 6 20 -3
0 -10 -9 -16 -20z"/>
<path d="M3645 1699 c-4 -6 -5 -12 -2 -15 2 -3 7 2 10 11 7 17 1 20 -8 4z"/>
<path d="M3782 1663 c-26 -38 -34 -53 -29 -53 2 0 16 18 31 40 29 45 28 56 -2
13z"/>
<path d="M3622 1645 c-17 -37 -14 -45 4 -12 9 16 14 31 11 33 -2 2 -9 -7 -15
-21z"/>
<path d="M3712 1533 c-11 -27 -23 -61 -27 -78 -3 -16 5 -3 18 30 13 33 28 68
32 78 4 9 5 17 2 17 -2 0 -14 -21 -25 -47z"/>
<path d="M3672 1385 c0 -16 2 -22 5 -12 2 9 2 23 0 30 -3 6 -5 -1 -5 -18z"/>
<path d="M4072 1640 c0 -14 2 -19 5 -12 2 6 2 18 0 25 -3 6 -5 1 -5 -13z"/>
<path d="M4006 1455 c-9 -26 -7 -32 5 -12 6 10 9 21 6 23 -2 3 -7 -2 -11 -11z"/>
<path d="M3975 1385 c-6 -7 -30 -37 -53 -67 l-44 -53 42 45 c23 25 40 37 36
27 -19 -57 -13 -62 8 -7 25 65 28 80 11 55z"/>
<path d="M3772 1330 c0 -14 2 -19 5 -12 2 6 2 18 0 25 -3 6 -5 1 -5 -13z"/>
<path d="M3763 1210 c0 -41 2 -58 4 -37 2 20 2 54 0 75 -2 20 -4 3 -4 -38z"/>
<path d="M3860 1239 c-7 -11 -10 -23 -7 -25 2 -2 9 7 15 21 14 30 7 33 -8 4z"/>
<path d="M4222 1240 c0 -14 2 -19 5 -12 2 6 2 18 0 25 -3 6 -5 1 -5 -13z"/>
<path d="M3921 1204 c0 -11 3 -14 6 -6 3 7 2 16 -1 19 -3 4 -6 -2 -5 -13z"/>
<path d="M3826 1165 c-3 -9 -6 -22 -5 -28 0 -7 5 -1 10 12 5 13 8 26 5 28 -2
2 -6 -3 -10 -12z"/>
<path d="M3912 1140 c0 -19 2 -27 5 -17 2 9 2 25 0 35 -3 9 -5 1 -5 -18z"/>
<path d="M4191 1133 c-1 -6 -4 -20 -7 -30 -5 -17 -5 -17 6 0 6 10 9 23 6 30
-3 9 -5 9 -5 0z"/>
<path d="M3771 1104 c0 -11 3 -14 6 -6 3 7 2 16 -1 19 -3 4 -6 -2 -5 -13z"/>
<path d="M3912 955 c0 -16 2 -22 5 -12 2 9 2 23 0 30 -3 6 -5 -1 -5 -18z"/>
<path d="M4141 964 c0 -11 3 -14 6 -6 3 7 2 16 -1 19 -3 4 -6 -2 -5 -13z"/>
<path d="M4131 914 c0 -11 3 -14 6 -6 3 7 2 16 -1 19 -3 4 -6 -2 -5 -13z"/>
<path d="M3921 894 c0 -11 3 -14 6 -6 3 7 2 16 -1 19 -3 4 -6 -2 -5 -13z"/>
<path d="M4372 825 c0 -16 2 -22 5 -12 2 9 2 23 0 30 -3 6 -5 -1 -5 -18z"/>
<path d="M4361 764 c0 -11 3 -14 6 -6 3 7 2 16 -1 19 -3 4 -6 -2 -5 -13z"/>
<path d="M4342 510 c0 -14 2 -19 5 -12 2 6 2 18 0 25 -3 6 -5 1 -5 -13z"/>
<path d="M2874 1492 c-33 -31 -67 -66 -75 -77 -8 -12 2 -4 21 16 19 20 55 55
80 77 25 23 43 42 40 42 -3 0 -32 -26 -66 -58z"/>
<path d="M2752 1353 c-54 -77 -103 -209 -101 -272 1 -29 3 -24 10 19 10 72 40
151 83 223 36 60 41 76 8 30z"/>
<path d="M3291 1448 c-2 -44 50 -153 138 -288 19 -30 57 -93 83 -140 26 -47
48 -80 48 -75 0 13 -87 166 -145 255 -55 85 -74 122 -101 200 -13 36 -23 57
-23 48z"/>
<path d="M3350 1455 c0 -5 5 -17 10 -25 5 -8 10 -10 10 -5 0 6 -5 17 -10 25
-5 8 -10 11 -10 5z"/>
<path d="M3401 1350 c7 -14 39 -63 72 -109 33 -46 73 -106 88 -135 16 -28 29
-47 29 -43 0 17 -43 91 -107 180 -38 52 -74 103 -81 113 -10 16 -11 15 -1 -6z"/>
<path d="M3221 1313 c-1 -15 46 -123 53 -123 3 0 -5 24 -18 53 -13 28 -26 59
-29 67 -3 9 -6 10 -6 3z"/>
<path d="M3290 1158 c0 -9 81 -138 87 -138 3 0 -6 17 -18 38 -37 60 -69 107
-69 100z"/>
<path d="M3421 933 c24 -44 46 -80 48 -78 4 5 -66 136 -81 150 -5 6 10 -27 33
-72z"/>
<path d="M3560 925 c0 -5 5 -17 10 -25 5 -8 10 -10 10 -5 0 6 -5 17 -10 25 -5
8 -10 11 -10 5z"/>
<path d="M3470 835 c0 -5 5 -17 10 -25 5 -8 10 -10 10 -5 0 6 -5 17 -10 25 -5
8 -10 11 -10 5z"/>
<path d="M3290 828 c0 -3 12 -26 26 -49 14 -24 23 -36 20 -26 -10 31 13 18 40
-23 31 -47 43 -54 17 -10 -17 30 -103 120 -103 108z"/>
<path d="M3491 774 c0 -11 3 -14 6 -6 3 7 2 16 -1 19 -3 4 -6 -2 -5 -13z"/>
<path d="M3506 725 c8 -37 14 -45 14 -19 0 10 -5 26 -10 34 -8 11 -9 7 -4 -15z"/>
<path d="M3433 641 c12 -22 23 -38 25 -36 5 5 -26 63 -37 69 -5 4 0 -12 12
-33z"/>
<path d="M3361 654 c0 -11 3 -14 6 -6 3 7 2 16 -1 19 -3 4 -6 -2 -5 -13z"/>
<path d="M3522 640 c0 -19 2 -27 5 -17 2 9 2 25 0 35 -3 9 -5 1 -5 -18z"/>
<path d="M3371 604 c0 -11 3 -14 6 -6 3 7 2 16 -1 19 -3 4 -6 -2 -5 -13z"/>
<path d="M3261 484 c0 -11 3 -14 6 -6 3 7 2 16 -1 19 -3 4 -6 -2 -5 -13z"/>
<path d="M3271 444 c0 -11 3 -14 6 -6 3 7 2 16 -1 19 -3 4 -6 -2 -5 -13z"/>
<path d="M3372 410 c0 -14 2 -19 5 -12 2 6 2 18 0 25 -3 6 -5 1 -5 -13z"/>
<path d="M3281 344 c0 -11 3 -14 6 -6 3 7 2 16 -1 19 -3 4 -6 -2 -5 -13z"/>
<path d="M2809 967 c-20 -29 -39 -63 -43 -77 -4 -15 1 -9 13 14 11 21 32 54
47 73 14 19 24 36 22 38 -2 2 -20 -20 -39 -48z"/>
<path d="M2851 934 c-6 -15 -14 -47 -16 -73 l-5 -46 13 55 c8 30 17 63 22 73
12 28 -1 20 -14 -9z"/>
<path d="M3055 883 c-21 -42 -52 -93 -69 -112 -43 -52 -55 -72 -24 -39 34 35
36 35 31 1 -2 -17 2 -12 11 14 7 23 32 78 55 123 24 45 41 83 39 85 -2 2 -21
-31 -43 -72z"/>
<path d="M2982 680 c0 -14 2 -19 5 -12 2 6 2 18 0 25 -3 6 -5 1 -5 -13z"/>
<path d="M2972 620 c0 -19 2 -27 5 -17 2 9 2 25 0 35 -3 9 -5 1 -5 -18z"/>
<path d="M3156 555 c-9 -26 -7 -32 5 -12 6 10 9 21 6 23 -2 3 -7 -2 -11 -11z"/>
<path d="M3122 475 c-30 -62 -27 -71 4 -12 14 27 24 51 22 53 -3 2 -14 -17
-26 -41z"/>
<path d="M2972 460 c0 -19 2 -27 5 -17 2 9 2 25 0 35 -3 9 -5 1 -5 -18z"/>
<path d="M3086 395 c-3 -9 -6 -22 -5 -28 0 -7 5 -1 10 12 5 13 8 26 5 28 -2 2
-6 -3 -10 -12z"/>
<path d="M3071 334 c0 -11 3 -14 6 -6 3 7 2 16 -1 19 -3 4 -6 -2 -5 -13z"/>
<path d="M4285 3520 c-13 -6 -15 -9 -5 -9 8 0 22 4 30 9 18 12 2 12 -25 0z"/>
<path d="M4190 3480 c-19 -11 -30 -19 -25 -19 6 0 26 8 45 19 19 11 31 19 25
19 -5 0 -26 -8 -45 -19z"/>
<path d="M4110 3445 c-14 -8 -20 -14 -15 -14 6 0 21 6 35 14 14 8 21 14 15 14
-5 0 -21 -6 -35 -14z"/>
<path d="M4603 3435 c-29 -13 -53 -27 -53 -30 0 -3 15 2 33 11 17 10 50 23 72
30 22 7 31 13 20 13 -11 1 -44 -10 -72 -24z"/>
<path d="M4058 3423 c7 -3 16 -2 19 1 4 3 -2 6 -13 5 -11 0 -14 -3 -6 -6z"/>
<path d="M4718 3383 c18 -2 45 -2 60 0 15 2 0 4 -33 4 -33 0 -45 -2 -27 -4z"/>
<path d="M4570 3360 c-73 -24 -53 -24 35 0 39 10 59 19 45 19 -14 0 -50 -8
-80 -19z"/>
<path d="M4818 3373 c6 -2 18 -2 25 0 6 3 1 5 -13 5 -14 0 -19 -2 -12 -5z"/>
<path d="M4488 3333 c7 -3 16 -2 19 1 4 3 -2 6 -13 5 -11 0 -14 -3 -6 -6z"/>
<path d="M4863 3223 c15 -2 39 -2 55 0 15 2 2 4 -28 4 -30 0 -43 -2 -27 -4z"/>
<path d="M4963 3213 c9 -2 23 -2 30 0 6 3 -1 5 -18 5 -16 0 -22 -2 -12 -5z"/>
<path d="M5148 3073 c7 -3 16 -2 19 1 4 3 -2 6 -13 5 -11 0 -14 -3 -6 -6z"/>
<path d="M5188 3063 c7 -3 16 -2 19 1 4 3 -2 6 -13 5 -11 0 -14 -3 -6 -6z"/>
<path d="M5230 3050 c8 -5 20 -10 25 -10 6 0 3 5 -5 10 -8 5 -19 10 -25 10 -5
0 -3 -5 5 -10z"/>
</g>
</svg>
