<?xml version="1.0" standalone="no"?>
<!DOCTYPE svg PUBLIC "-//W3C//DTD SVG 20010904//EN"
 "http://www.w3.org/TR/2001/REC-SVG-20010904/DTD/svg10.dtd">
<svg version="1.0" xmlns="http://www.w3.org/2000/svg"
 width="512.000000pt" height="512.000000pt" viewBox="0 0 512.000000 512.000000"
 preserveAspectRatio="xMidYMid meet">

<g transform="translate(0.000000,512.000000) scale(0.100000,-0.100000)"
fill="#000000" stroke="none">
<path d="M1726 4894 c-13 -12 -16 -40 -16 -134 0 -125 8 -150 50 -150 42 0 50
25 50 150 0 125 -8 150 -50 150 -10 0 -26 -7 -34 -16z"/>
<path d="M3780 4901 c-94 -29 -180 -125 -180 -201 0 -11 -6 -22 -12 -24 -7 -2
-32 -9 -56 -15 -52 -14 -115 -69 -145 -125 -32 -62 -30 -164 5 -232 31 -59 84
-109 147 -138 56 -25 235 -33 409 -18 168 15 164 10 182 262 16 235 -12 346
-107 430 -67 58 -167 84 -243 61z m103 -102 c61 -17 114 -72 134 -138 13 -46
15 -83 9 -213 -4 -87 -9 -164 -12 -172 -8 -20 -32 -24 -195 -32 -171 -8 -233
3 -286 49 -45 40 -65 80 -65 133 0 87 62 144 157 144 28 0 56 5 63 12 7 7 12
34 12 61 0 50 20 107 46 128 12 10 79 37 94 39 3 0 22 -5 43 -11z"/>
<path d="M826 4794 c-32 -32 -18 -56 97 -171 115 -115 139 -129 171 -97 32 32
18 56 -97 171 -115 115 -139 129 -171 97z"/>
<path d="M2523 4697 c-115 -115 -129 -139 -97 -171 32 -32 56 -18 171 97 115
115 129 139 97 171 -32 32 -56 18 -171 -97z"/>
<path d="M1377 4300 c-63 -16 -137 -59 -187 -110 -136 -135 -167 -358 -76
-539 38 -74 132 -187 234 -280 51 -46 89 -87 85 -91 -4 -4 -46 -17 -93 -29
-333 -88 -667 -330 -864 -626 -136 -204 -220 -425 -251 -662 -74 -556 158
-1106 610 -1444 468 -351 1090 -406 1618 -144 l107 54 108 -54 c778 -387 1715
-64 2087 719 135 284 181 565 140 869 -106 796 -806 1382 -1607 1344 -221 -11
-425 -64 -622 -163 l-109 -54 -53 29 c-81 46 -231 108 -319 131 -44 12 -86 23
-94 26 -10 3 21 38 88 101 116 109 189 199 231 289 110 230 21 504 -198 607
-61 29 -76 32 -162 32 -82 0 -103 -4 -152 -27 -32 -15 -76 -41 -98 -59 l-40
-32 -40 32 c-69 55 -145 84 -230 87 -41 2 -92 -1 -113 -6z m211 -121 c24 -10
67 -43 96 -74 34 -35 62 -55 76 -55 14 0 42 20 74 53 68 71 131 100 218 100
123 0 233 -79 279 -202 16 -45 20 -73 17 -142 -3 -74 -8 -95 -40 -160 -42 -85
-136 -192 -276 -312 l-91 -79 -182 2 -182 1 -99 86 c-135 118 -220 213 -265
297 -33 64 -37 80 -41 161 -3 73 0 100 17 145 63 168 241 248 399 179z m452
-998 c53 -10 132 -31 175 -46 77 -25 245 -100 245 -108 0 -2 -36 -32 -81 -67
-44 -35 -107 -92 -139 -127 l-59 -64 -81 26 c-271 85 -548 68 -794 -48 -119
-57 -199 -111 -294 -201 -388 -367 -452 -944 -154 -1395 46 -70 169 -200 242
-256 368 -281 869 -298 1260 -44 80 52 253 224 303 300 155 239 215 510 172
778 -26 156 -85 308 -168 432 l-41 62 64 60 c85 80 209 160 227 146 23 -20
115 -172 154 -253 169 -362 181 -771 34 -1151 -152 -393 -521 -734 -920 -850
-167 -48 -249 -59 -430 -59 -136 1 -191 5 -275 23 -300 64 -526 186 -741 400
-214 215 -336 440 -400 741 -32 149 -32 410 -1 556 61 286 182 519 375 720
234 245 533 398 869 443 105 14 345 5 458 -18z m1573 4 c292 -51 551 -188 768
-404 283 -283 423 -621 423 -1021 0 -400 -140 -738 -423 -1021 -175 -174 -357
-286 -584 -358 -157 -50 -261 -65 -447 -64 -179 0 -291 18 -446 69 -76 25
-244 99 -244 107 0 2 36 32 80 66 44 35 107 92 140 128 l61 64 62 -20 c155
-50 187 -55 357 -55 146 0 176 4 263 27 205 55 381 160 530 317 140 148 228
313 274 512 23 101 23 355 0 456 -46 199 -134 364 -274 512 -308 325 -746 433
-1159 286 -660 -236 -929 -1029 -549 -1617 l46 -72 -33 -34 c-43 -46 -131
-114 -196 -152 l-52 -31 -35 48 c-95 130 -179 317 -221 487 -117 481 18 985
359 1341 235 247 542 402 877 443 99 13 313 6 423 -14z m-1718 -445 c64 -9
215 -49 215 -56 0 -2 -21 -36 -46 -75 -105 -162 -195 -388 -231 -579 -26 -145
-24 -430 6 -570 42 -199 109 -364 216 -534 30 -49 54 -90 53 -91 -2 -2 -32
-12 -68 -23 -96 -29 -241 -45 -343 -38 -605 46 -1028 604 -902 1193 106 500
596 844 1100 773z m1590 0 c417 -60 736 -349 837 -757 25 -104 30 -311 10
-408 -46 -214 -145 -391 -299 -535 -254 -238 -628 -328 -951 -229 -37 12 -68
22 -70 24 -2 1 17 34 42 72 343 531 337 1211 -16 1730 -15 23 -28 44 -28 46 0
7 152 47 217 56 82 12 176 12 258 1z m-886 -458 c47 -74 91 -178 119 -282 21
-81 25 -117 25 -240 0 -123 -4 -159 -25 -240 -38 -142 -133 -337 -161 -327
-17 5 -86 127 -117 209 -93 242 -90 502 10 742 32 77 96 186 110 186 4 0 22
-22 39 -48z"/>
<path d="M568 4199 c-25 -14 -24 -65 1 -79 11 -5 62 -10 115 -10 100 0 126 10
126 50 0 40 -26 50 -128 50 -53 0 -105 -5 -114 -11z"/>
<path d="M2726 4194 c-9 -8 -16 -24 -16 -34 0 -42 25 -50 150 -50 125 0 150 8
150 50 0 42 -25 50 -150 50 -94 0 -122 -3 -134 -16z"/>
<path d="M4475 4161 c-45 -21 -89 -61 -113 -106 -14 -24 -17 -60 -17 -190 0
-180 5 -208 40 -231 39 -25 304 -33 371 -10 86 28 154 118 154 203 0 78 -67
165 -137 179 -23 5 -32 13 -36 33 -15 74 -102 141 -182 141 -22 0 -58 -9 -80
-19z m150 -124 c8 -12 15 -40 15 -62 0 -52 13 -65 67 -65 79 0 121 -78 77
-145 -29 -44 -90 -59 -216 -51 -62 4 -113 8 -115 9 -1 2 -5 53 -9 115 -8 124
7 187 49 215 47 31 104 24 132 -16z"/>
</g>
</svg>
